<svg xmlns="http://www.w3.org/2000/svg" width="497" height="612" viewBox="0 0 497 612">
    <g fill="none" fill-rule="evenodd">
        <path fill="#FFFFFE" d="M30.981 57.195a2.5 2.5 0 1 1-4.962.61 2.5 2.5 0 0 1 4.962-.61"/>
        <path fill="#D0CCC8" d="M315.006 348.09c-24.785 30.443-46.203 59.357-65.053 87.582-14.686 19.37-47.276 8.16-62.052-3.892-66.905-54.495-108.044-109.164-133.458-169.691-4.79-13.34-3.843-35.544 13.284-46.53 34.285-18.592 73.247-39.724 117.919-63.95 20.388-10.644 40.325-6.11 43.64 10.683 12.04 53.533 37.842 99.143 82.571 143.955 12.491 11.646 14.236 28.562 3.149 41.843"/>
        <path fill="#003D78" d="M81.093 287.486c6.237 12.548 9.012 23.845 6.2 25.233-2.813 1.387-10.149-7.658-16.386-20.205-6.237-12.546-9.012-23.843-6.2-25.233 2.814-1.387 10.149 7.66 16.386 20.205"/>
        <path fill="#B9B9B4" d="M331.201 341.18c-24.433 30.094-45.535 58.685-64.095 86.605-14.472 19.153-46.84 7.875-61.547-4.153-66.598-54.39-107.65-108.833-133.133-169.016-4.812-13.261-3.978-35.29 12.955-46.113l116.624-62.907c20.167-10.467 39.958-5.874 43.326 10.806 12.186 53.179 37.987 98.56 82.551 143.24 12.442 11.615 14.249 28.408 3.319 41.537"/>
        <path fill="#D0CCC8" d="M247.66 200.59c63.435 5.57 78.257 8.662 105.176-52.358 0 0 .161 29.758 48.864 59.677 0 0-6.588 68.776-92.267 72.059L247.66 200.59"/>
        <path fill="#D0CCC8" d="M402.177 207.194c-49.154-29.595-49.25-59.138-49.25-59.138-3.331-16.957-21.915 15.09-16.212 30.417 5.702 15.33 30.628 54.558 53.987 59.18 9.618 1.903 21.66-27.382 11.475-30.459"/>
        <path fill="#003D78" d="M345.338 162.522c-1.676-3.745-1.248-12.775-.583-19.772.547-5.75 3.658-10.947 8.442-14.189l34.734-23.54 21.01 17.75-3.626 7.272s16.917 9.36 34.42 41.737c0 0-1.445 40.525-31.577 42.54-26.051 1.743-56.862-38.501-62.82-51.798"/>
        <path fill="#199D7F" d="M408.339 214.273c-16.356 1.087-34.612-14.615-47.334-29.679 2.874-15.992-3.363-24.496-3.363-24.496l23.057 26.856s2.794-.608 6.393-2.027c0 0 15.697 18.857 21.008 19.588 5.313.732 27.043-12.05 31.57-32.791 0 0-1.397 40.56-31.331 42.549"/>
        <path fill="#199D7F" d="M366.41 129.432c1.829.756 3.569 1.706 5.271 2.728a46.826 46.826 0 0 1 4.912 3.37c3.153 2.43 6.166 5.059 8.884 7.97 2.778 2.84 5.37 5.857 7.615 9.055 2.243 3.169 4.336 6.474 5.561 9.776 1.22 3.348 1.344 5.92.057 8.51-1.286 2.575-4.065 4.89-7.222 6.833-3.154 1.923-6.977 3.404-10.492 4.541l3.474 1.144-6.197-6.311-6.338-6.192c-2.16-2.023-4.305-4.06-6.498-6.056l-3.312-2.972-3.4-2.9-.372.32 23.115 26.678.15.17.214-.051c4.132-.984 8.112-2.456 11.85-4.469 3.679-2.031 7.227-4.716 9.294-8.542 1-1.902 1.576-4.052 1.554-6.208-.007-2.162-.589-4.258-1.344-6.22-1.57-3.928-3.866-7.483-6.406-10.807a74.61 74.61 0 0 0-8.476-9.26c-3.062-2.858-6.368-5.467-9.9-7.743-3.525-2.273-7.32-4.205-11.38-5.397-4.023-1.196-8.505-1.528-12.53.013l.179.452c4.124-.85 8.097.07 11.737 1.568z"/>
        <path fill="#199D7F" d="M392.63 151.42l4.335 2.253 13.068-32.837zM431.03 187.795c-4.132 4.884-9.07 9.046-14.527 12.107l-2.077 1.055-2.112.896c-.705.192-1.432.51-2.105.604-.332.048-.695.15-.992.16-.264-.04-.538.023-.785-.05-.25-.13-.455-.143-.743-.31l-.879-.53c-.59-.441-1.196-.863-1.778-1.378a50.981 50.981 0 0 1-3.426-3.229c-4.44-4.56-8.594-9.592-12.542-14.65l-3.743 3.215c4.397 4.954 8.866 9.726 13.796 14.19a54.928 54.928 0 0 0 3.877 3.21c1.45.975 2.662 2.065 4.935 2.578.528.093 1.07.015 1.6.002.499-.06.906-.2 1.36-.302.898-.208 1.639-.59 2.458-.882.752-.38 1.513-.738 2.249-1.132l2.144-1.27c5.544-3.604 10.33-8.22 14.249-13.495 3.85-5.318 6.692-11.427 7.913-17.88-1.622 6.362-4.802 12.161-8.871 17.09zM261.641 547.179l-2.504 3.422c-2.25 3.08-2.37 7.272-.238 10.445 6.47 9.62 22.597 28.352 50.18 28.59a8.932 8.932 0 0 0 6.316-2.522c1.3-1.267 3.094-3.133 5.46-5.836l-59.214-34.099"/>
        <path fill="#FAF9F7" d="M310.203 397.753c42.46-25.054 98.15-9.949 99.427 45.61l3.722 25.673s27.842 2.671 65.849-24.176c0 0-1.166-14.295-17.644-17.6 0 0 6.314-139.95-131.648-126.55l-19.706 97.043"/>
        <path fill="#D0CCC8" d="M412.648 467.915l33.89-26.502c-1.579-10.376-11.561-16.335-11.561-16.335-18.301-62.828-81.523-80.77-89.47-125.164-.24.003-.476.005-.714.01-1.817.089-7.05.348-13.573.728-.501.047-.988.074-1.494.123l-19.6 96.368c42.21-24.884 97.562-9.891 98.826 45.28l3.696 25.492"/>
        <path fill="#FAF9F7" d="M84.678 277.445c-14.116 29.148-.075 62.901 56.823 88.353 56.9 25.452 54.22 57.134 90.111 58.733 121.47 5.417 141.657-143.006 60.614-203.999L84.678 277.445"/>
        <path fill="#FAF9F7" d="M178.621 389.938c26.967 24.838 17.865 32.614 42.123 59.354 24.26 26.74 52.467 40.643 41.851 98.468 0 0 9.975 32.21 59.536 33.743 0 0 11.102-14.537.161-29.828 0 0 37.484-90.658-15.084-166.447-52.569-75.792-128.587 4.71-128.587 4.71"/>
        <path fill="#D0CCC8" d="M140.882 366.287c17.42 7.77 29.238 16.124 38.299 24.02 26.71 24.744 17.721 32.535 41.864 59.233 24.186 26.744 52.3 40.656 41.745 98.464 0 0 1.034 5.022 7.783 12.762 9.784 8.758 13.885-11.9 13.885-11.9 13.22-52.532-22.466-80.755-38.267-116.854-15.801-36.096-50.008-56.689-75.417-85.895-25.41-29.206-5.595-60.911-5.595-60.911l-60.34-12.647-20.706 5.67c-14.112 29.061-.093 62.703 56.75 88.058"/>
        <path fill="#FADC6E" d="M337.131 297.11c-9.158 28.248-57.964 73.65-157.247 94.301l4.237 4.08s129.366-24.997 154.665-88.45c0 0-1.06-7.128-1.655-9.93"/>
        <path fill="#EEA34E" d="M183.354 393.583s12.054-2.306 29.569-7.25a441.737 441.737 0 0 0-4.208-3.924 435.372 435.372 0 0 1-29.649 7.172 146.362 146.362 0 0 1 4.13 3.855l.158.147"/>
        <path fill="#199D7F" d="M478.799 437.066c-1.99-4.044-17.836-2.109-36.267 4.693-18.434 6.803-31.05 15.476-30.481 19.938.651 5.106 1.257 6.415 1.257 6.415-1.6-4.212 12.049-13.137 30.48-19.938 18.43-6.802 31.847-3.462 36.266-4.695.132-4.156-.532-4.944-1.255-6.413"/>
        <path fill="#2E616D" d="M478.682 443.112c1.599 4.263-11.96 13.261-30.286 20.103-18.33 6.841-34.48 8.933-36.078 4.674-1.6-4.263 11.962-13.262 30.288-20.103 18.326-6.842 34.477-8.935 36.076-4.674"/>
        <path fill="#254953" d="M415.525 342.778c-9.24-9.945-16.549-25.402-10.063-32.675 5.762-6.461 21.628.394 32.771 12.814 11.145 12.422 13.306 29.035 6.863 34.815-6.443 5.78-20.33-5.011-29.57-14.954"/>
        <path fill="#003D78" d="M417.247 340.508c-9.237-9.91-17.361-24.031-11.236-29.5 6.126-5.468 21.69-1.647 32.84 10.72 11.148 12.368 13.662 28.596 7.536 34.066-6.127 5.469-19.904-5.378-29.14-15.286M410.96 442.813c7.614 2.613 37.629-20.187 52.613-16.217 0 0 3.173-2.501 3.329-11.773.154-9.27-5.088-10.051-5.088-10.051l.289 1.626s-17.344 1.954-33.74 11.496c-16.197 9.425-20.513 5.026-20.513 5.026l-.647-1.949s-3.5.124-2.143 4.41c2.495 7.878-.146 15.358 5.9 17.432"/>
        <path fill="#199D7F" d="M408.316 422.555l-.64-1.929s-3.463.122-2.12 4.369c2.47 7.803-.142 15.213 5.84 17.269 4.813 1.655 18.668-6.96 31.914-12.374-2.974-3.383-5.98-5.217-5.98-5.217-.994-3.446-2.143-6.737-3.385-9.927a79.545 79.545 0 0 0-5.339 2.836c-16.02 9.333-20.29 4.973-20.29 4.973M339.08 487.296c-1.265 16.734-8.577 29.55-18.39 28.824-9.813-.727-18.412-14.722-17.148-31.457 1.264-16.736 11.912-29.87 21.723-29.144 9.815.725 15.077 15.042 13.814 31.777"/>
        <path fill="#003D78" d="M342.087 488.772c-1.233 16.457-8.346 29.062-17.887 28.35-9.538-.713-17.894-14.472-16.66-30.928 1.234-16.457 11.588-29.378 21.129-28.666 9.539.711 14.65 14.789 13.418 31.244"/>
        <path fill="#2E919C" d="M264.603 533.518c14.791 16.794 45.655 26.876 59.58 18.494 4.193-2.524 7.486-15.415 4.255-16.84l-.645 2.16s-33.956 5.928-62.995-21.21l-.156-1.428s-2.626-.07-2.967 3.015c-.507 4.602-.207 12.248 2.928 15.81"/>
        <path fill="#199D7F" d="M264.262 515.6l-.158-1.442s-2.63-.072-2.968 3.04c-.504 4.64-.197 12.352 2.946 15.947 5.192 5.934 12.357 11.035 20.074 14.805.068-.282.103-.449.103-.449 1.557-5.869 2.44-11.412 2.81-16.706-7.485-3.302-15.307-8.135-22.807-15.196"/>
        <path fill="#D0CCC8" d="M244.376 150.21c7.003 20.466 20.122 34.5 29.303 31.346 9.182-3.153 10.949-22.3 3.945-42.766-7.003-20.465-20.124-34.5-29.305-31.345-9.18 3.153-10.947 22.3-3.943 42.765"/>
        <path fill="#FAF9F7" d="M69.428 213.364c21.604 55.072 97.706 76.853 152.995 55.277 55.289-21.576 68.826-78.34 47.222-133.412-21.605-55.073-67.7-79.724-125.457-66.023-61.761 14.651-102.223 74.15-74.76 144.158"/>
        <path fill="#FAF9F7" d="M272.98 213.995c-21.842 25.974-99.114 57.908-170.95 39.658-2.631-.667-5.38.6-6.623 2.998l-11.074 21.367s63.62 19.596 133.048-3.727c63.053-21.18 74.603-52.866 74.603-52.866l-10.928-8.327a5.895 5.895 0 0 0-8.076.897"/>
        <path fill="#D0CCC8" d="M90.641 142.591c36.43 19.826 36.416 83.776 36.416 83.776 16.78 22.867 52.493 30.607 52.493 30.607-21.797 7.195-13.862 28.476-13.769 28.728-45.847 3.807-80.432-7.096-80.442-7.1l10.929-21.557a5.815 5.815 0 0 1 3.725-3.008c-13.399-10.182-24.103-23.376-30.312-39.352-27.388-70.47 12.705-130.261 74.024-144.902-58.675 21.64-53.064 72.808-53.064 72.808"/>
        <path fill="#D0CCC8" d="M140.515 287.04c13.134.414 26.331-.177 39.406-1.907 13.063-1.781 25.996-4.706 38.55-8.836a236.981 236.981 0 0 0 18.579-6.897c3.01-1.369 6.056-2.67 8.99-4.206 2.959-1.488 5.836-3.132 8.692-4.805 5.628-3.484 11.088-7.27 16.077-11.612 2.49-2.17 4.88-4.451 7.14-6.844 2.204-2.45 4.349-4.945 6.208-7.643l-.255-.2c-4.466 4.765-9.348 9.063-14.538 12.95-5.183 3.888-10.612 7.45-16.296 10.58-2.818 1.601-5.656 3.176-8.577 4.598-2.87 1.517-5.823 2.88-8.763 4.271a233.05 233.05 0 0 1-18.107 7.37c-12.29 4.38-25.015 7.593-37.94 9.68-12.916 2.142-26.034 3.163-39.16 3.18l-.006.32M271.116 213.548c-5.24 5.564-11.366 10.069-17.728 14.107a162.716 162.716 0 0 1-19.929 10.616c-13.694 6.223-27.92 11.357-42.584 14.849-14.659 3.487-29.706 5.372-44.8 5.55-15.093.288-30.244-1.431-44.995-5.033l-.08.325c14.672 4.042 29.86 6.229 45.084 6.384 15.222.16 30.462-1.405 45.367-4.605 14.896-3.168 29.619-7.675 43.397-14.423 6.843-3.442 13.555-7.209 19.803-11.706 3.097-2.285 6.137-4.648 8.976-7.263 2.787-2.665 5.49-5.444 7.744-8.585l-.255-.216"/>
        <path fill="#D0CCC8" d="M232.664 220.584c2.508 2.244 4.681 4.568 6.2 7.065 1.474 2.53 2.455 5.166 2.444 8.067l-.005 1.027.924.338c2.019.737 4.092 1.883 5.865 3.174 1.784 1.306 3.394 2.832 4.633 4.607 1.254 1.773 2.195 3.78 2.666 5.959.471 2.203.495 4.556.19 6.932l.342.056c.606-2.36.847-4.793.58-7.172-.271-2.338-1.01-4.635-2.231-6.664-1.189-2.03-2.794-3.82-4.604-5.377-1.849-1.562-3.803-2.89-6.177-4.026l.912 1.348c.21-1.703.202-3.467-.295-5.134-.468-1.654-1.326-3.207-2.451-4.546-1.086-1.358-2.44-2.525-3.911-3.52-1.486-.987-3.098-1.833-4.897-2.376l-.185.242"/>
        <path fill="#2E616D" d="M73.848 197.264c8.546 24.974 24.945 41.966 36.626 37.955 11.683-4.012 14.225-27.51 5.677-52.484-8.546-24.973-24.944-41.967-36.626-37.954-11.682 4.012-14.223 27.51-5.677 52.483"/>
        <path fill="#D0CCC8" d="M63.93 159.385l13.98-9.687.006.012a10.45 10.45 0 0 1 2.527-1.28c11.144-3.781 26.741 12.099 34.836 35.469 8.095 23.37 5.622 45.381-5.522 49.163-.804.273-1.632.431-2.478.504l.004.01-17.312.992-26.04-75.183"/>
        <path fill="#FAF9F7" d="M57.371 202.037c7.111 20.721 20.768 34.815 30.505 31.48 9.736-3.334 11.864-22.833 4.753-43.555-7.111-20.72-20.768-34.815-30.503-31.48-9.74 3.334-11.865 22.835-4.755 43.555"/>
        <path fill="#254953" d="M73.008 197.5l-11.717 7.994c5.888 14.36 15.345 23.575 21.909 21.354 7.17-2.426 8.465-17.67 2.875-33.771-5.593-16.1-16.093-27.352-23.26-24.927-6.144 2.08-8.12 13.622-4.715 27.551l14.908 1.799"/>
        <path fill="#199D7F" d="M72.005 198.498l-11.715 7.995c5.888 14.36 15.344 23.577 21.909 21.355 7.168-2.426 8.467-17.67 2.876-33.771-5.594-16.1-16.092-27.352-23.262-24.926-6.143 2.08-8.118 13.622-4.713 27.549l14.905 1.798"/>
        <path fill="#FFFFFE" d="M235.69 104.978c22.772 19.588 37.353 60.2 31.434 83.686 0 0-5.34 29.22-54.463 42.15-54.778 14.419-68.068-11.412-72.524-17.435-9.632-13.016-23.755-43.315-22.245-70.75 1.947-35.334 90.693-60.97 117.799-37.651"/>
        <path fill="#254953" d="M238.689 100.978c22.773 19.587 37.353 60.2 31.437 83.686 0 0-5.343 29.22-54.466 42.15-54.78 14.419-68.068-11.411-72.524-17.433-9.632-13.018-23.754-43.317-22.244-70.75 1.945-35.335 90.691-60.971 117.797-37.653"/>
        <path fill="#003D78" d="M236.29 103.896c22.323 19.316 36.636 59.343 30.855 82.48 0 0-5.213 28.786-53.329 41.493-53.655 14.168-66.691-11.293-71.06-17.23-9.446-12.832-23.304-42.695-21.843-69.726 1.882-34.814 88.805-60.012 115.377-37.017"/>
        <path fill="#199D7F" d="M244.687 214.117s-27.036-2.537-63.166-18.971c-38.006-17.286-60.286-44.078-60.286-44.078a81.614 81.614 0 0 1-.261-8.407s26.194 29.83 64.848 46.623c34.543 15.007 65.469 19.93 65.469 19.93a71.56 71.56 0 0 1-6.604 4.903"/>
        <path fill="#199D7F" d="M213.873 226.879c-53.417 14.116-66.4-11.27-70.752-17.189-7.26-9.877-17.133-29.87-20.597-50.872 0 0 17.24 21.749 54.666 39.895 35.002 16.968 60.382 19.103 60.382 19.103-6.427 3.417-14.214 6.556-23.699 9.063M214.122 113.27c3.556.26 7.055.862 10.193 2.048 1.569.589 3.037 1.327 4.34 2.226.614.399 1.405 1.091 2.1 1.624.697.605 1.413 1.188 2.092 1.826 5.498 5.038 10.24 11.196 14.234 17.82 4.002 6.636 7.251 13.81 9.523 21.321 2.15 7.492 3.561 15.49 2.008 23.346 1.188-3.8 1.615-7.85 1.6-11.88-.03-4.034-.498-8.068-1.234-12.05-1.541-7.952-4.128-15.716-7.6-23.096-3.479-7.378-7.793-14.443-13.353-20.732-1.425-1.592-2.797-3.033-4.518-4.57-1.794-1.546-3.754-2.795-5.768-3.809-4.036-2.034-8.254-3.195-12.44-3.958l-.01-.002c-2.664-.486-5.2 1.32-5.664 4.03-.464 2.711 1.319 5.305 3.983 5.79.17.031.345.053.514.066M201.49 114.634c2.154-.715 3.627-2.92 3.437-5.409-.222-2.92-2.643-5.13-5.41-4.935-4.672.33-9.54 1.022-14.467 2.06-2.716.549-4.445 3.36-3.868 6.23.577 2.87 3.245 4.735 5.96 4.163 4.503-.947 8.937-1.58 13.177-1.878.408-.029.799-.109 1.17-.231"/>
        <path fill="#FAF9F7" d="M199.703 223.305c-3.332-.563-6.612-1.015-9.84-1.641-3.227-.615-6.398-1.34-9.493-2.247-3.112-.846-6.115-1.967-9.068-3.18-1.483-.6-2.93-1.285-4.374-1.994l-2.17-1.086c-.698-.377-1.335-.689-1.982-1.112-2.58-1.596-5.003-3.61-7.26-5.836-2.234-2.246-4.338-4.678-6.334-7.223-3.966-5.12-7.427-10.697-10.898-16.395a72.397 72.397 0 0 0 7.88 18.445c1.764 2.894 3.76 5.676 6.069 8.242 2.275 2.592 4.88 4.966 7.91 6.91.735.493 1.581.931 2.338 1.35.747.393 1.507.772 2.283 1.128 1.552.714 3.125 1.409 4.738 2.013 3.205 1.26 6.57 2.1 9.933 2.73a57.607 57.607 0 0 0 20.268-.104M84.653 278.314c50.526.252 68.536 59.39 40.807 79.962-27.73 20.573.729 44.472 14.878 48.618 13.53 3.968 18.398 68.497-33.56 62.63 0 0-90.093-26.24-79.04-100.514 7.683-51.614 56.915-90.696 56.915-90.696"/>
        <path fill="#003D78" d="M177.864 443.25c-.859 21.558-19.156 54.971-47.271 56.054-37.488 1.443-26.296-35.365-26.296-35.365l35.851-56.357s38.576 14.108 37.716 35.667z"/>
        <path fill="#199D7F" d="M103.336 476.586l49.614-64.65s9.358 17.657-1.785 39.997c-6.534 13.1-16.2 21.222-26.198 25.94-4.045 1.908-5.11 7.228-2.05 10.485a25.243 25.243 0 0 0 5.759 4.55c9.761 5.675-17.897 10.735-24.161-9.608-.075.007-1.044-4.432-1.179-6.714"/>
        <path fill="#FAF9F7" d="M123.907 401c.285-5.481 17.327-.928 25.77 8.38 7.266 8.014 5.85 49.728-30.862 65.518-24.014 10.328-34.245-13.731-34.245-13.731s36.617-8.012 39.337-60.168"/>
        <path fill="#D0CCC8" d="M28.232 369.001c7.766-51.847 57.403-91.124 57.403-91.124 5.922-.822 14.603.947 19.513 3.34-.459.472-27.272 26.785-46.333 59.931-19.249 33.475 9.285 81.938 56.86 98.226 0 0-10.745 11.684 17.475 29.528a57.918 57.918 0 0 1-11.609 6.719c-23.88 10.385-34.106-13.928-34.106-13.928C61.38 448.982 20.524 420.495 28.232 369"/>
        <path fill="#FADC6E" d="M114.044 376.522c-14.807 6.48-71.546 15.474-86.97-.249 0 0-1.37 12.85 1.892 24.596 5.818 10.281 62.937 3.711 84.813-20.666l.265-3.68"/>
        <path fill="#DA842F" d="M64.79 403.472c-4.096-6.053-7.297-12.403-9.423-18.834-12.2-.58-22.894-3.024-28.393-8.545-.783 8.628-.169 16.568 1.489 23.88.135.244.237.477.38.723 2.89 5.046 18.34 5.995 35.946 2.776"/>
        <path fill="#D0CCC8" d="M85.52 461.537c6.25-1.045 12.122-4.09 17.175-8.06 5.097-3.978 9.273-9.096 12.574-14.688l2.207-4.345c.396-.712.686-1.468.97-2.23l.863-2.275c1.239-3.005 1.929-6.18 2.691-9.314.723-3.144.949-6.384 1.392-9.551.108-3.216.152-6.426.089-9.611-.648 3.146-1.112 6.28-1.65 9.384l-1.102 4.596c-.404 1.516-.594 3.084-1.156 4.55-1.024 2.955-1.74 6.003-3.089 8.804-.642 1.409-1.072 2.916-1.836 4.261l-2.155 4.092c-3.08 5.326-6.879 10.21-11.401 14.38-4.536 4.142-9.719 7.666-15.573 10.007"/>
        <path fill="#003D78" d="M75.383 339.53c-15.954 20.625-41.467 12.609-38.535-3.016 0 0 8.365-17.59 20.31-31.036 20.487-23.061 37.609 8.991 18.225 34.051z"/>
        <path fill="#199D7F" d="M56.087 342.556c-1.589 2.745-2.824 5.6-3.784 8.52-9.69-.14-17.14-6.428-15.46-15.141.272-.53.53-1.068.806-1.593l.015-.026c5.815-11.025 12.836-20.834 19.6-29.006l.004-.002c10.638-11.768 20.33-9.01 24.535-.2-7.835 9.854-17.205 22.753-25.716 37.448"/>
        <path fill="#D0CCC8" d="M297.978 248.93s18.703 9.161 28.049 30.482c.03 1.867-.706 5.854-1.692 8.66 0 0-11.838 25.329-55.51 43.023 0 0-12.882-25.977-29.063-42.928 0 0-2.277-4.817 1.691-8.66 9.683-4.618 35.686-10.277 56.525-30.578"/>
        <path fill="#FAF9F7" d="M299.693 241.78s17.405 13.228 26.367 39.141c0 0-11.846 25.33-55.543 43.027 0 0-12.887-25.977-29.075-42.926 0 0 30.965-12.675 58.251-39.242"/>
        <path fill="#D0CCC8" d="M258.545 288.208c1.745 1.703 3.298 3.577 4.817 5.47 1.528 1.894 2.903 3.89 4.26 5.901 1.32 2.032 2.643 4.069 3.812 6.188a112.98 112.98 0 0 1 3.359 6.434l-1.056-.37c3.232-1.548 6.398-3.379 9.511-5.222 3.101-1.877 6.16-3.83 9.161-5.864 2.988-2.05 5.984-4.103 8.858-6.315l4.333-3.296 4.272-3.38c-5.137 5.107-10.752 9.766-16.635 14.091-2.967 2.13-6.004 4.176-9.137 6.079-3.134 1.92-6.323 3.701-9.699 5.29l-.72.339-.339-.71c-1.023-2.159-2.041-4.321-3.17-6.43a139.279 139.279 0 0 0-3.484-6.284c-1.222-2.064-2.546-4.069-3.868-6.08-1.34-2-2.757-3.952-4.275-5.84"/>
        <path fill="#FADC6E" d="M299.804 277.332c4.09 5.283 10.63 6.953 14.605 3.73 3.976-3.22 3.88-10.113-.212-15.395-4.091-5.281-10.632-6.951-14.606-3.73-3.976 3.222-3.88 10.114.213 15.395"/>
        <path fill="#254953" d="M279.122 305.64c-.887.11-1.805-.32-2.332-1.187-.73-1.207-.423-2.805.69-3.57l10.39-7.139c1.112-.762 2.607-.407 3.339.803.732 1.206.423 2.804-.69 3.568l-10.39 7.139a2.256 2.256 0 0 1-1.007.386"/>
        <path fill="#2E616D" d="M274.082 300.641a2.426 2.426 0 0 1-2.377-1.17c-.697-1.162-.333-2.675.812-3.376l10.44-6.4c1.142-.701 2.64-.329 3.338.833.697 1.163.333 2.675-.814 3.378l-10.44 6.398a2.382 2.382 0 0 1-.96.337"/>
        <path fill="#2E919C" d="M271.098 296.64c-.95.116-1.925-.362-2.433-1.29-.675-1.232-.276-2.795.894-3.488l10.432-6.19c1.178-.694 2.669-.255 3.344.978.675 1.232.276 2.793-.894 3.488l-10.432 6.188c-.291.172-.6.275-.91.313"/>
        <path fill="#E1665A" d="M279.661 275.83c2.43 2.97 6.345 3.89 8.74 2.048 2.397-1.837 2.369-5.736-.061-8.708-2.43-2.971-6.347-3.888-8.74-2.05-2.397 1.84-2.37 5.74.061 8.71"/>
        <path fill="#FFFFFE" d="M448.985 516.756a2 2 0 1 1-3.97.488 2 2 0 0 1 3.97-.488M394.75 558.909a.756.756 0 0 1-1.5.184.755.755 0 1 1 1.5-.184M333.993 590.878a1 1 0 1 1-1.984.245 1 1 0 0 1 1.984-.245M362.989 503.317a1.5 1.5 0 1 1-2.978.365 1.5 1.5 0 0 1 2.978-.365M382.981 472.195a2.5 2.5 0 1 1-4.964.61 2.5 2.5 0 0 1 4.964-.61M495.992 502.878a.998.998 0 1 1-1.982.243.998.998 0 0 1 1.982-.243M471.981 535.195a2.5 2.5 0 1 1-4.961.611 2.5 2.5 0 0 1 4.961-.611M400.989 571.316a1.5 1.5 0 1 1-2.978.367 1.5 1.5 0 0 1 2.978-.367M304.981 609.195a2.5 2.5 0 1 1-4.963.61 2.5 2.5 0 0 1 4.963-.61M396.47 42.942a.473.473 0 1 1-.528-.41.473.473 0 0 1 .527.41M465.981 45.195a2.5 2.5 0 1 1-4.964.608 2.5 2.5 0 0 1 4.964-.608M448.985 109.756a2 2 0 1 1-3.97.488 2 2 0 0 1 3.97-.488M453.981 121.195a2.5 2.5 0 1 1-4.961.61 2.5 2.5 0 0 1 4.961-.61M467.981 152.196a2.5 2.5 0 1 1-4.963.608 2.5 2.5 0 0 1 4.963-.608M482.993 194.878a1 1 0 1 1-1.985.244 1 1 0 0 1 1.985-.244M360.985 93.755a2 2 0 1 1-3.971.489 2 2 0 0 1 3.971-.489M411.981 264.195a2.5 2.5 0 1 1-4.961.61 2.5 2.5 0 0 1 4.961-.61M471.981 229.195a2.5 2.5 0 1 1-4.964.61 2.5 2.5 0 0 1 4.964-.61M306.981 114.195a2.501 2.501 0 1 1-4.965.608 2.501 2.501 0 0 1 4.965-.608M301.992 2.877a1 1 0 1 1-1.986.244 1 1 0 0 1 1.986-.244M245.563.93a.565.565 0 0 1-.495.632.565.565 0 1 1-.138-1.124.566.566 0 0 1 .633.493M223.985 53.756a1.999 1.999 0 1 1-3.97.488 2 2 0 0 1 3.97-.488M5.978 103.634a3 3 0 1 1-5.955.733 3 3 0 0 1 5.955-.733M21.981 94.195a2.5 2.5 0 1 1-4.962.61 2.5 2.5 0 0 1 4.962-.61M24.981 64.195a2.5 2.5 0 1 1-4.96.61 2.5 2.5 0 0 1 4.96-.61M90.981 38.195a2.5 2.5 0 1 1-4.961.61 2.5 2.5 0 0 1 4.961-.61M160.985 78.755a2 2 0 1 1-3.971.489 2 2 0 0 1 3.971-.489M174.981 31.195a2.5 2.5 0 1 1-4.963.609 2.5 2.5 0 0 1 4.963-.609M487.992 449.877a1 1 0 1 1-1.984.246 1 1 0 0 1 1.984-.246M496.981 433.196a2.499 2.499 0 1 1-4.962.61 2.5 2.5 0 1 1 4.962-.61M483.989 360.316a1.5 1.5 0 1 1 0 0"/>
    </g>
</svg>
