<?xml version="1.0" encoding="UTF-8"?>
<svg width="13px" height="13px" viewBox="0 0 13 13" version="1.1" xmlns="http://www.w3.org/2000/svg" xmlns:xlink="http://www.w3.org/1999/xlink">
    <!-- Generator: Sketch 52.5 (67469) - http://www.bohemiancoding.com/sketch -->
    <title>Group 12</title>
    <desc>Created with Sketch.</desc>
    <g id="11.-Penilaian-Akhir-Aspek-Sikap" stroke="none" stroke-width="1" fill="none" fill-rule="evenodd">
        <g id="4.5.5-Teacher_Website_Penilan_Sikap_Beri_Nilai" transform="translate(-148.000000, -728.000000)" fill-rule="nonzero">
            <g id="Row" transform="translate(101.000000, 629.000000)">
                <g id="Icons" transform="translate(47.000000, 96.000000)">
                    <g id="Group-12" transform="translate(0.000000, 3.000000)">
                        <path d="M9.42795759,1.36842105 C8.37910268,1.36842105 7.37244308,1.85495395 6.71540179,2.62379605 C6.05836049,1.85495395 5.05170089,1.36842105 4.00284598,1.36842105 C2.14625223,1.36842105 0.6875,2.82201316 0.6875,4.67203947 C0.6875,6.94252632 2.73698661,8.79255263 5.84135603,11.6036316 L6.71540179,12.3904934 L7.58944754,11.597625 C10.693817,8.79255263 12.7433036,6.94252632 12.7433036,4.67203947 C12.7433036,2.82201316 11.2845513,1.36842105 9.42795759,1.36842105 Z" id="Shape" fill="#EB373E"></path>
                        <polyline id="Path-2" stroke="#FFFFFF" points="5.65857798 0.888801437 8.27521136 3.76087878 5.65857798 5.65079859 6.96689467 8.30601839 5.65857798 12"></polyline>
                    </g>
                </g>
            </g>
        </g>
    </g>
</svg>