<?xml version="1.0" encoding="UTF-8"?>
<svg width="19px" height="18px" viewBox="0 0 19 18" version="1.1" xmlns="http://www.w3.org/2000/svg" xmlns:xlink="http://www.w3.org/1999/xlink">
    <!-- Generator: Sketch 52.5 (67469) - http://www.bohemiancoding.com/sketch -->
    <title>printer-printing-document</title>
    <desc>Created with Sketch.</desc>
    <g id="Symbols" stroke="none" stroke-width="1" fill="none" fill-rule="evenodd">
        <g id="Export" fill="#3D74B4" fill-rule="nonzero">
            <g id="printer-printing-document" transform="translate(0.000000, -0.000000)">
                <path d="M16.15,4.77513228 L2.85,4.77513228 C1.235,4.77513228 0,6.01666667 0,7.64021164 L0,13.3703704 L3.8,13.3703704 L3.8,17.1904762 L15.2,17.1904762 L15.2,13.3703704 L19,13.3703704 L19,7.64021164 C19,6.01666667 17.765,4.77513228 16.15,4.77513228 Z M13.3,15.2804233 L5.7,15.2804233 L5.7,10.505291 L13.3,10.505291 L13.3,15.2804233 Z M16.15,8.5952381 C15.58,8.5952381 15.2,8.21322751 15.2,7.64021164 C15.2,7.06719577 15.58,6.68518519 16.15,6.68518519 C16.72,6.68518519 17.1,7.06719577 17.1,7.64021164 C17.1,8.21322751 16.72,8.5952381 16.15,8.5952381 Z M15.2,0 L3.8,0 L3.8,3.82010582 L15.2,3.82010582 L15.2,0 Z" id="Shape"></path>
            </g>
        </g>
    </g>
</svg>