<?xml version="1.0" encoding="UTF-8"?>
<svg width="19px" height="17px" viewBox="0 0 19 17" version="1.1" xmlns="http://www.w3.org/2000/svg" xmlns:xlink="http://www.w3.org/1999/xlink">
    <!-- Generator: Sketch 52.5 (67469) - http://www.bohemiancoding.com/sketch -->
    <title>share</title>
    <desc>Created with Sketch.</desc>
    <g id="Symbols" stroke="none" stroke-width="1" fill="none" fill-rule="evenodd">
        <g id="eksport" fill="#3D74B4">
            <g id="share">
                <path d="M13.2951128,0.161999667 C13.1447312,0.00350309588 12.9190561,-0.0436762577 12.7231291,0.0426380551 C12.5272022,0.128952368 12.399388,0.33158449 12.399388,0.55661052 L12.399388,3.52651909 C9.56306306,3.64631557 8.1423361,4.89211174 7.92507257,5.09952705 C6.49388248,6.34423616 5.51670959,8.07878455 5.16178427,10.0042245 C4.98432163,10.9345494 4.95252196,11.8894425 5.06802656,12.8306383 L5.06843685,12.8338995 C5.06946263,12.8421613 5.07069361,12.8506405 5.0719246,12.8589024 L5.18353116,13.5387636 C5.22107524,13.7677031 5.38910058,13.9479413 5.60472284,13.9905549 C5.82055025,14.0331686 6.03842922,13.9290261 6.15126676,13.7298727 L6.48567612,13.1391522 C7.51311304,11.328508 8.79351115,10.1283693 10.2917883,9.5720006 C10.9675825,9.31892792 11.6835878,9.20761071 12.399388,9.24457147 L12.399388,12.3205793 C12.399388,12.5458227 12.5276125,12.7491071 12.7241549,12.8349865 C12.9209025,12.9210835 13.1469879,12.872817 13.2969592,12.7130159 L18.8471292,6.80146295 C19.0516728,6.58361165 19.0508522,6.23117961 18.8452827,6.01441543 L13.2951128,0.161999667 Z" id="Path"></path>
                <path d="M17.5788011,12.4648867 C17.3463191,12.4648867 17.1576022,12.6634062 17.1576022,12.9083508 L17.1576022,14.7826795 C17.1569442,15.5169937 16.5916162,16.1122057 15.8940056,16.1130718 L2.10599441,16.1130718 C1.40838376,16.1122057 0.843220407,15.5169937 0.842397763,14.7826795 L0.842397763,4.21732051 C0.843220407,3.48283309 1.40838376,2.88779438 2.10599441,2.8869282 L5.01901244,2.8869282 C5.25165904,2.8869282 5.44021133,2.68840875 5.44021133,2.4434641 C5.44021133,2.1985195 5.25165904,2 5.01901244,2 L2.10599441,2 C0.943419704,2.00138583 0.00131624651,2.99329032 0,4.21732051 L0,14.7826795 C0.00131624651,16.0065365 0.943419704,16.998441 2.10599441,17 L15.8940056,17 C17.0565803,16.998441 17.9986838,16.0065365 18,14.7826795 L18,12.9083508 C18,12.6634062 17.8114477,12.4648867 17.5788011,12.4648867 Z" id="Path"></path>
            </g>
        </g>
    </g>
</svg>