<svg xmlns="http://www.w3.org/2000/svg" width="264" height="234" viewBox="0 0 264 234">
    <g fill="none" fill-rule="evenodd">
        <path fill="#FADC6E" d="M264 124.5c0 59.924-48.801 108.5-109 108.5S46 184.424 46 124.5 94.801 16 155 16s109 48.576 109 108.5"/>
        <path fill="#EEA34E" d="M257 129c0 57.99-47.234 105-105.5 105S46 186.99 46 129 93.234 24 151.5 24 257 71.01 257 129"/>
        <path fill="#DF9136" d="M112 121c0 11.598-9.402 21-20.999 21C79.401 142 70 132.598 70 121c0-11.597 9.402-21 21.001-21 11.597 0 20.999 9.403 20.999 21M241 104.001C241 134.377 216.375 159 186 159c-30.376 0-55-24.623-55-54.999S155.624 49 186 49c30.375 0 55 24.625 55 55.001M150 166.5a5.5 5.5 0 1 1-11.001-.001A5.5 5.5 0 0 1 150 166.5M120 175.5c0 10.217-8.283 18.5-18.5 18.5S83 185.717 83 175.5s8.283-18.5 18.5-18.5 18.5 8.283 18.5 18.5M26 215a8 8 0 1 1-16 0 8 8 0 0 1 8-8 8 8 0 0 1 8 8M241 8a8 8 0 1 1-16 0 8 8 0 0 1 8-8 8 8 0 0 1 8 8M19 70.5c0 5.248-4.252 9.5-9.5 9.5a9.5 9.5 0 1 1 9.5-9.5"/>
        <path fill="#DF9136" d="M129 178.5a9.5 9.5 0 0 1-9.5 9.5c-5.246 0-9.5-4.253-9.5-9.5 0-5.248 4.254-9.5 9.5-9.5 5.247 0 9.5 4.252 9.5 9.5M90 201.5c0 9.665-7.836 17.5-17.5 17.5-9.665 0-17.5-7.835-17.5-17.5S62.835 184 72.5 184c9.664 0 17.5 7.835 17.5 17.5"/>
    </g>
</svg>
