<svg xmlns="http://www.w3.org/2000/svg" width="144" height="55" viewBox="0 0 144 55">
    <g fill="none" fill-rule="nonzero">
        <path fill="#646464" d="M64.508 41.837c-1.927 0-3.48-.374-4.661-1.12-1.18-.748-1.915-1.819-2.204-3.215l4.119-.477c.144.636.457 1.138.94 1.506.481.367 1.12.55 1.914.55 1.133 0 1.964-.354 2.494-1.065.53-.71.795-1.775.795-3.195v-.845l.036-1.58h-.036c-.916 1.984-2.614 2.963-5.095 2.939-1.855 0-3.289-.704-4.3-2.112-1.012-1.409-1.518-3.423-1.518-6.043s.524-4.647 1.572-6.08c1.048-1.432 2.56-2.149 4.535-2.149 2.312 0 3.914.968 4.806 2.902h.072c0-.343.024-.814.072-1.414.048-.6.096-.998.145-1.194h3.866a85.07 85.07 0 0 0-.072 3.747v11.902c0 2.302-.639 4.035-1.915 5.198-1.277 1.163-3.132 1.745-5.565 1.745zm3.433-14.73c0-1.666-.29-2.964-.868-3.895-.578-.93-1.409-1.395-2.493-1.395-2.192 0-3.288 1.787-3.288 5.363 0 3.502 1.084 5.253 3.252 5.253 1.084 0 1.921-.46 2.511-1.378.59-.918.886-2.234.886-3.949zm8.202 8.265V23.029c0-.882-.012-1.617-.036-2.204-.024-.588-.048-1.115-.072-1.58h3.902c.024.172.066.716.126 1.635.06.918.09 1.524.09 1.818h.037c.41-1.126.77-1.922 1.084-2.388.313-.465.68-.808 1.102-1.028.422-.22.958-.33 1.608-.33.53 0 .952.073 1.265.22v3.49c-.675-.148-1.253-.221-1.735-.221-1.036 0-1.837.422-2.403 1.267-.566.845-.849 2.1-.849 3.766v7.898h-4.119zm18.14.293c-2.386 0-4.216-.716-5.493-2.149-1.277-1.432-1.915-3.52-1.915-6.263 0-2.67.65-4.72 1.95-6.153 1.302-1.432 3.145-2.149 5.53-2.149 2.264 0 3.998.772 5.203 2.315 1.204 1.542 1.806 3.783 1.806 6.722v.147H91.211c0 1.567.283 2.749.849 3.545.566.796 1.379 1.194 2.439 1.194 1.445 0 2.36-.637 2.746-1.91l3.903.33c-1.133 2.914-3.421 4.371-6.866 4.371zm0-14.069c-.964 0-1.705.343-2.223 1.029-.518.685-.789 1.64-.813 2.865h6.143c-.073-1.298-.38-2.271-.922-2.92-.542-.65-1.27-.974-2.186-.974zm20.45 13.776c-.047-.147-.096-.52-.144-1.12a19.24 19.24 0 0 1-.072-1.489h-.072c-.892 1.935-2.578 2.902-5.059 2.902-1.855 0-3.282-.728-4.282-2.185s-1.5-3.508-1.5-6.153c0-2.67.53-4.733 1.59-6.19 1.06-1.457 2.566-2.186 4.517-2.186 1.132 0 2.102.239 2.909.717.807.477 1.427 1.193 1.86 2.149h.037l-.036-2.645v-5.878h4.12v18.551c0 1.004.035 2.18.107 3.527h-3.974zm-.18-8.156c0-1.738-.289-3.073-.867-4.004-.578-.93-1.421-1.395-2.53-1.395-1.108 0-1.927.453-2.457 1.359-.53.906-.794 2.29-.794 4.15 0 3.65 1.071 5.474 3.215 5.474 1.084 0 1.928-.484 2.53-1.45.602-.968.903-2.346.903-4.134zm12.069-7.97v9.036c0 2.84.94 4.261 2.818 4.261.988 0 1.789-.435 2.403-1.304.614-.87.921-1.978.921-3.325v-8.669h4.12v12.527c0 1.371.036 2.571.108 3.6h-3.902c-.12-1.42-.181-2.486-.181-3.196h-.072c-.554 1.224-1.253 2.112-2.096 2.663-.843.55-1.843.826-3 .826-1.685 0-2.98-.52-3.883-1.56-.904-1.042-1.355-2.578-1.355-4.611V19.245h4.119z"/>
        <path fill="#FCD25A" d="M139.992 35.355v-4.06h4v4.06z"/>
        <g>
            <path fill="#000" d="M39.976 11.931v8.035l-5.998 3.579 5.998 3.58v15.789L19.968 54.829 0 42.914V11.93L19.968 0l20.008 11.931zM14.01 20.264v14.218l5.96 3.54 5.327-3.182-5.999-3.58v-7.994l5.83-3.486-5.159-3.076-5.959 3.56z"/>
            <path fill="#44BCEE" d="M33.465 16.278l5.288-3.193v6.125l-5.288 3.153z"/>
            <path fill="#229C80" d="M2.052 12.264l5.098 3.069L19.97 7.676l12.795 7.623 5.122-3.069L19.94 1.551z"/>
            <path fill="#0C7CC0" d="M7.662 37.731v-21.23l11.714-6.996v6.046l-6.63 3.957V34.68z"/>
            <path fill="#FBC547" d="M19.973 45.554l11.665-6.936-5.113-3.022-6.557 3.912-6.46-3.868-5.023 3.044zM32.798 30.44l5.097-3.043L26.332 20.5l-5.1 3.033z"/>
            <path fill="#E63C2B" d="M33.544 31.567v7.45l-12.905 7.711v6.176l18.074-10.786V28.476z"/>
            <path fill="#EFE2E2" d="M6.472 39.056v-22.63l-5.21-3.142v28.83l17.878 10.67v-6.172zM20.52 24.5v6.206l11.84 7.077v-6.222zM20.6 9.525v6.046l11.602 6.92v-6.047z"/>
            <g fill="#000">
                <g transform="translate(.435 11.847)">
                    <ellipse cx=".652" cy=".658" rx="1" ry="1"/>
                    <ellipse cx="1.955" cy="2.413" rx="1" ry="1"/>
                    <ellipse cx="3.693" cy="4.168" rx="1" ry="1"/>
                    <ellipse cx="5.432" cy="5.923" rx="1" ry="1"/>
                </g>
                <g transform="translate(.435 15.357)">
                    <ellipse cx=".652" cy=".658" rx="1" ry="1"/>
                    <ellipse cx="1.955" cy="2.413" rx="1" ry="1"/>
                    <ellipse cx="3.693" cy="4.168" rx="1" ry="1"/>
                    <ellipse cx="5.432" cy="5.923" rx="1" ry="1"/>
                </g>
                <g transform="translate(.435 18.867)">
                    <ellipse cx=".652" cy=".658" rx="1" ry="1"/>
                    <ellipse cx="1.955" cy="2.413" rx="1" ry="1"/>
                    <ellipse cx="3.693" cy="4.168" rx="1" ry="1"/>
                    <ellipse cx="5.432" cy="5.923" rx="1" ry="1"/>
                </g>
                <g transform="translate(.435 22.815)">
                    <ellipse cx=".652" cy=".658" rx="1" ry="1"/>
                    <ellipse cx="1.955" cy="2.413" rx="1" ry="1"/>
                    <ellipse cx="3.693" cy="4.168" rx="1" ry="1"/>
                    <ellipse cx="5.432" cy="5.923" rx="1" ry="1"/>
                </g>
                <g transform="translate(.435 26.764)">
                    <ellipse cx=".652" cy=".658" rx="1" ry="1"/>
                    <ellipse cx="1.955" cy="2.413" rx="1" ry="1"/>
                    <ellipse cx="3.693" cy="4.168" rx="1" ry="1"/>
                    <ellipse cx="5.432" cy="5.923" rx="1" ry="1"/>
                </g>
                <g transform="translate(.435 30.713)">
                    <ellipse cx=".652" cy=".658" rx="1" ry="1"/>
                    <ellipse cx="1.955" cy="2.413" rx="1" ry="1"/>
                    <ellipse cx="3.693" cy="4.168" rx="1" ry="1"/>
                    <ellipse cx="5.432" cy="5.923" rx="1" ry="1"/>
                    <ellipse cx="8.473" cy="9.433" rx="1" ry="1"/>
                </g>
                <g transform="translate(.435 34.662)">
                    <ellipse cx=".652" cy=".658" rx="1" ry="1"/>
                    <ellipse cx="1.955" cy="2.413" rx="1" ry="1"/>
                    <ellipse cx="3.693" cy="4.168" rx="1" ry="1"/>
                    <ellipse cx="5.432" cy="5.923" rx="1" ry="1"/>
                    <ellipse cx="6.735" cy="7.678" rx="1" ry="1"/>
                    <ellipse cx="8.473" cy="9.433" rx="1" ry="1"/>
                </g>
                <g transform="translate(8.256 43.437)">
                    <ellipse cx=".652" cy=".658" rx="1" ry="1"/>
                    <ellipse cx="1.955" cy="2.413" rx="1" ry="1"/>
                    <ellipse cx="3.693" cy="4.168" rx="1" ry="1"/>
                    <ellipse cx="5.432" cy="5.923" rx="1" ry="1"/>
                    <ellipse cx="7.17" cy="7.678" rx="1" ry="1"/>
                </g>
                <g transform="translate(8.256 39.488)">
                    <ellipse cx=".652" cy=".658" rx="1" ry="1"/>
                    <ellipse cx="1.955" cy="2.413" rx="1" ry="1"/>
                    <ellipse cx="3.693" cy="4.168" rx="1" ry="1"/>
                    <ellipse cx="5.432" cy="5.923" rx="1" ry="1"/>
                    <ellipse cx="6.735" cy="7.678" rx="1" ry="1"/>
                    <ellipse cx="8.473" cy="9.433" rx="1" ry="1"/>
                    <ellipse cx="10.211" cy="11.188" rx="1" ry="1"/>
                </g>
                <g transform="translate(14.774 43.437)">
                    <ellipse cx=".652" cy=".658" rx="1" ry="1"/>
                    <ellipse cx="2.39" cy="2.413" rx="1" ry="1"/>
                    <ellipse cx="4.128" cy="4.168" rx="1" ry="1"/>
                </g>
                <g transform="translate(.435 38.61)">
                    <ellipse cx=".652" cy=".658" rx="1" ry="1"/>
                    <ellipse cx="1.955" cy="2.413" rx="1" ry="1"/>
                    <ellipse cx="3.693" cy="4.168" rx="1" ry="1"/>
                    <ellipse cx="5.432" cy="5.923" rx="1" ry="1"/>
                    <ellipse cx="6.735" cy="7.678" rx="1" ry="1"/>
                </g>
                <g transform="translate(21.292 11.408)">
                    <ellipse cx=".652" cy=".658" rx="1" ry="1"/>
                    <ellipse cx="1.955" cy="2.413" rx="1" ry="1"/>
                    <ellipse cx="3.693" cy="4.168" rx="1" ry="1"/>
                    <ellipse cx="5.432" cy="5.923" rx="1" ry="1"/>
                    <ellipse cx="6.735" cy="7.678" rx="1" ry="1"/>
                    <ellipse cx="8.473" cy="9.433" rx="1" ry="1"/>
                </g>
                <g transform="translate(25.202 11.847)">
                    <ellipse cx=".652" cy=".658" rx="1" ry="1"/>
                    <ellipse cx="1.955" cy="2.413" rx="1" ry="1"/>
                    <ellipse cx="3.693" cy="4.168" rx="1" ry="1"/>
                    <ellipse cx="5.432" cy="5.923" rx="1" ry="1"/>
                    <ellipse cx="6.735" cy="7.678" rx="1" ry="1"/>
                </g>
                <g transform="translate(21.292 14.918)">
                    <ellipse cx=".652" cy=".658" rx="1" ry="1"/>
                    <ellipse cx="1.955" cy="2.413" rx="1" ry="1"/>
                </g>
                <g transform="translate(21.292 26.326)">
                    <ellipse cx=".652" cy=".658" rx="1" ry="1"/>
                    <ellipse cx="1.955" cy="2.413" rx="1" ry="1"/>
                    <ellipse cx="3.693" cy="4.168" rx="1" ry="1"/>
                    <ellipse cx="5.432" cy="5.923" rx="1" ry="1"/>
                    <ellipse cx="6.735" cy="7.678" rx="1" ry="1"/>
                    <ellipse cx="8.473" cy="9.433" rx="1" ry="1"/>
                </g>
                <g transform="translate(20.857 29.836)">
                    <ellipse cx=".652" cy=".658" rx="1" ry="1"/>
                    <ellipse cx="1.955" cy="2.413" rx="1" ry="1"/>
                </g>
                <g transform="translate(25.202 26.764)">
                    <ellipse cx=".652" cy=".658" rx="1" ry="1"/>
                    <ellipse cx="1.955" cy="2.413" rx="1" ry="1"/>
                    <ellipse cx="3.693" cy="4.168" rx="1" ry="1"/>
                    <ellipse cx="5.432" cy="5.923" rx="1" ry="1"/>
                    <ellipse cx="6.735" cy="7.678" rx="1" ry="1"/>
                </g>
            </g>
        </g>
    </g>
</svg>
