<svg xmlns="http://www.w3.org/2000/svg" xmlns:xlink="http://www.w3.org/1999/xlink" width="987" height="546" viewBox="0 0 987 546">
    <defs>
        <linearGradient id="b" x1="50%" x2="50%" y1="0%" y2="98.2%">
            <stop offset="0%" stop-color="#7BEC51"/>
            <stop offset="100%" stop-color="#199D7F"/>
        </linearGradient>
        <path id="a" d="M667.049 428.804c-104.052 9.092-151.7 77.818-264.992 77.818-76.434 0-132.782-80.754-195.546-101.344C68.291 359.933 0 364.031 0 262.298 0 181.752 126.286 29.976 240.212 59.622 323.473 81.29 399.085 27.04 474.705 9.677 667.05-34.483 643.63 84.092 723.702 132.011c81.111 48.54 162.65 55.86 162.65 130.287 0 79.458-95.031 155.648-219.303 166.506z"/>
    </defs>
    <g fill="none" fill-rule="evenodd">
        <path fill="#00CF86" d="M750.806 83.851c133.729 11.7 235.991 93.798 235.991 179.416 0 80.198-87.744 88.085-175.026 140.389-86.167 51.635-60.965 179.402-267.944 131.819-81.375-18.708-162.74-77.165-252.337-53.818C168.896 513.602 33 350.058 33 263.267c0-109.62 73.487-105.205 222.225-154.065C322.765 87.015 383.4 0 465.65 0c121.914 0 173.187 74.055 285.156 83.851z" opacity=".22"/>
        <g transform="translate(67 39)">
            <mask id="c" fill="#fff">
                <use xlink:href="#a"/>
            </mask>
            <use fill="url(#b)" xlink:href="#a"/>
            <g mask="url(#c)">
                <path fill="#FFFFFE" d="M764.022 133.606a2 2 0 1 0 3.97.487 2 2 0 0 0-3.97-.487"/>
                <path fill="#D0CCC8" d="M567.12 334.369c17.237 21.05 32.135 41.043 45.248 60.558 10.214 13.393 32.857 5.661 43.119-2.66 46.468-37.629 75.03-75.39 92.662-117.208 3.322-9.217 2.654-24.562-9.254-32.162l-81.975-44.251c-14.173-7.367-28.025-4.242-30.322 7.36-8.34 36.991-26.249 68.5-57.311 99.448-8.675 8.042-9.879 19.731-2.168 28.915"/>
                <path fill="#003D78" d="M729.206 294.646c-4.115 8.648-5.971 16.42-4.149 17.361 1.824.94 6.638-5.306 10.752-13.954 4.115-8.647 5.972-16.42 4.148-17.361-1.824-.94-6.637 5.307-10.751 13.954"/>
                <path fill="#B9B9B4" d="M554.907 330.102c16.816 20.823 31.338 40.607 44.11 59.926 9.959 13.253 32.258 5.431 42.393-2.902 45.894-37.68 74.193-75.387 91.771-117.06 3.32-9.182 2.755-24.431-8.903-31.916l-80.3-43.497c-13.885-7.237-27.519-4.049-29.846 7.5-8.416 36.818-26.207 68.245-56.92 99.193-8.575 8.046-9.827 19.673-2.305 28.756"/>
                <path fill="#D0CCC8" d="M613.623 233.403c-43.82 3.844-54.058 5.978-72.656-36.157 0 0-.11 20.548-33.752 41.205 0 0 4.553 47.488 63.74 49.758l42.668-54.806"/>
                <path fill="#D0CCC8" d="M505.692 237.832c34.61-19.504 34.53-39.217 34.53-39.217 2.272-11.298 15.57 10.178 11.614 20.377-3.955 10.2-21.385 36.253-37.88 39.221-6.79 1.223-15.45-18.379-8.264-20.381"/>
                <path fill="#003D78" d="M544.769 207.782c1.168-2.597.864-8.863.395-13.717-.386-3.99-2.563-7.597-5.909-9.85l-24.289-16.353-14.671 12.3 2.539 5.049s-11.817 6.482-24.028 28.934c0 0 1.035 28.116 22.094 29.533 18.207 1.225 39.714-26.675 43.869-35.896"/>
                <path fill="#199D7F" d="M502.477 242.35c11.245.752 23.786-9.97 32.524-20.258-1.983-10.93 2.3-16.738 2.3-16.738l-15.837 18.341s-1.92-.417-4.396-1.389c0 0-10.781 12.88-14.431 13.376-3.653.498-18.597-8.248-21.72-22.425 0 0 .982 27.72 21.56 29.094"/>
                <path fill="#199D7F" d="M532.283 183.677c-1.263.54-2.464 1.22-3.64 1.948a32.583 32.583 0 0 0-3.394 2.403c-2.179 1.732-4.263 3.604-6.143 5.676-1.921 2.022-3.716 4.168-5.27 6.443-1.554 2.253-3.006 4.603-3.858 6.948-.85 2.378-.941 4.204-.06 6.037.879 1.824 2.788 3.458 4.96 4.83 2.169 1.356 4.8 2.397 7.219 3.194l-2.397.82 4.287-4.492 4.384-4.408c1.493-1.441 2.977-2.891 4.493-4.313l2.29-2.116 2.35-2.065.257.225-15.999 18.983-.103.12-.148-.035c-2.845-.687-5.584-1.722-8.155-3.14-2.53-1.432-4.97-3.327-6.384-6.036-.684-1.347-1.076-2.87-1.056-4.4.01-1.533.417-3.022.942-4.416 1.092-2.79 2.684-5.318 4.442-7.682a52.963 52.963 0 0 1 5.865-6.59 49.242 49.242 0 0 1 6.843-5.517c2.435-1.622 5.055-3.002 7.857-3.858 2.775-.858 5.865-1.105 8.636-.022l-.125.321c-2.84-.592-5.581.07-8.093 1.142z"/>
                <path fill="#199D7F" d="M512.846 200.795l-3.285 1.573-10.153-23.411zM486.45 224.704c2.787 3.449 6.125 6.382 9.819 8.532l1.406.74 1.43.628c.479.134.971.356 1.428.42.225.033.472.104.673.11.18-.029.365.014.533-.038.17-.093.31-.103.506-.223l.599-.38c.402-.314.815-.616 1.212-.983a35.87 35.87 0 0 0 2.339-2.303c3.032-3.25 5.872-6.835 8.572-10.438l2.529 2.267c-3.005 3.53-6.057 6.931-9.422 10.116a38.32 38.32 0 0 1-2.644 2.29c-.988.698-1.815 1.475-3.361 1.847-.359.069-.727.015-1.087.008-.338-.041-.614-.139-.922-.209-.609-.144-1.11-.413-1.665-.616-.51-.267-1.025-.518-1.523-.795l-1.451-.892c-3.751-2.536-6.984-5.791-9.625-9.518-2.595-3.757-4.501-8.079-5.306-12.651 1.077 4.506 3.215 8.607 5.96 12.088zM604.215 474.023l1.71 2.35c1.536 2.116 1.616 4.999.157 7.18-4.427 6.618-15.457 19.502-34.308 19.68a6.076 6.076 0 0 1-4.315-1.73c-.887-.87-2.112-2.152-3.728-4.01l40.484-23.47"/>
                <path fill="#FAF9F7" d="M573.165 370.197c-29.897-17.493-69.067-7.016-69.918 31.693l-2.596 17.884s-19.588 1.837-46.352-16.9c0 0 .808-9.96 12.399-12.248 0 0-4.562-97.513 92.519-88.06l13.948 67.63"/>
                <path fill="#D0CCC8" d="M498.017 419.051l-23.193-18.207c1.084-7.134 7.92-11.234 7.92-11.234 12.553-43.198 55.845-55.554 61.301-86.076l.488.007c1.245.06 4.827.237 9.293.496.343.032.677.05 1.023.084l13.386 66.242c-28.89-17.093-66.793-6.766-67.678 31.162l-2.54 17.526"/>
                <path fill="#FAF9F7" d="M726.62 286.01c9.652 20.251-.02 43.735-39.092 61.496-39.073 17.761-37.27 39.786-61.9 40.939-83.357 3.904-97.04-99.27-41.36-141.77l142.351 39.335"/>
                <path fill="#FAF9F7" d="M662.171 365.123c-18.812 17.132-12.447 22.513-29.366 40.961-16.92 18.449-36.609 28.026-29.138 67.981 0 0-6.937 22.24-41.554 23.253 0 0-7.77-10.053-.142-20.605 0 0-26.27-62.663 10.377-114.967 36.647-52.306 89.823 3.377 89.823 3.377"/>
                <path fill="#D0CCC8" d="M688.736 349.672c-12.005 5.39-20.15 11.18-26.396 16.652-18.413 17.147-12.223 22.538-28.869 41.037-16.674 18.531-36.049 28.177-28.803 68.205 0 0-.714 3.478-5.367 8.842-6.745 6.069-9.561-8.235-9.561-8.235-9.085-36.373 15.513-55.934 26.416-80.939 10.902-25.003 34.477-39.28 51.996-59.516 17.52-20.236 3.881-42.183 3.881-42.183l41.576-8.785 14.263 3.918c9.71 20.118.037 43.421-39.136 61.004"/>
                <path fill="#FADC6E" d="M551.094 300.962c6.378 19.667 40.37 51.277 109.513 65.657l-2.95 2.84s-90.095-17.406-107.716-61.583c0 0 .738-4.963 1.153-6.914"/>
                <path fill="#EEA34E" d="M658.912 367.965s-8.504-1.663-20.852-5.274c.99-.993 1.988-1.981 2.994-2.963a289.997 289.997 0 0 0 20.91 5.216 108.49 108.49 0 0 0-2.939 2.91l-.113.111"/>
                <path fill="#199D7F" d="M453.54 397.17c1.388-2.798 12.48-1.443 25.386 3.284 12.908 4.728 21.747 10.745 21.352 13.834-.451 3.535-.874 4.44-.874 4.44 1.116-2.914-8.445-9.107-21.35-13.833-12.907-4.727-22.294-2.427-25.387-3.285-.097-2.878.368-3.423.872-4.44"/>
                <path fill="#2E616D" d="M452.929 400.17c-1.128 2.964 8.514 9.25 21.536 14.043 13.024 4.793 24.494 6.277 25.621 3.316 1.129-2.964-8.516-9.25-21.538-14.043-13.021-4.792-24.491-6.278-25.62-3.315"/>
                <path fill="#254953" d="M496.985 330.583c6.168-6.696 11.052-17.099 6.733-21.986-3.836-4.342-14.42.28-21.86 8.643-7.44 8.364-8.893 19.54-4.6 23.423 4.291 3.882 13.559-3.386 19.727-10.08"/>
                <path fill="#003D78" d="M495.475 329.634c6.218-7.095 11.717-17.178 7.658-21.032-4.058-3.854-14.465-1.053-21.973 7.798-7.507 8.853-9.272 20.403-5.214 24.258 4.06 3.855 13.312-3.93 19.529-11.024M500.866 401.82c-5.313 1.787-26.301-13.932-36.759-11.22 0 0-2.219-1.725-2.34-8.102-.12-6.375 3.54-6.904 3.54-6.904l-.2 1.118s12.113 1.366 23.575 7.95c11.32 6.502 14.329 3.483 14.329 3.483l.45-1.34s2.443.09 1.501 3.036c-1.732 5.414.123 10.561-4.096 11.98"/>
                <path fill="#199D7F" d="M504.308 386.587l.465-1.388s2.527.092 1.551 3.148c-1.792 5.617.122 10.956-4.24 12.43-3.51 1.186-13.628-5.034-23.298-8.949 2.166-2.433 4.356-3.75 4.356-3.75a82.353 82.353 0 0 1 2.458-7.144c1.296.622 2.601 1.3 3.899 2.048 11.698 6.74 14.809 3.605 14.809 3.605M551.699 433.137c1.015 11.454 6.418 20.261 13.568 19.82 7.15-.442 13.34-9.967 12.325-21.421-1.015-11.455-8.852-20.5-16-20.057-7.152.44-10.908 10.204-9.893 21.658"/>
                <path fill="#003D78" d="M548.605 433.291c.766 11.425 5.468 20.155 11.835 19.627 6.365-.526 11.986-10.11 11.22-21.535-.768-11.425-7.63-20.363-13.997-19.837-6.366.527-9.824 10.321-9.058 21.745"/>
                <path fill="#2E919C" d="M601.9 463.927c-10.354 12.078-31.9 19.384-41.588 13.408-2.918-1.8-5.182-11.035-2.925-12.065l.444 1.547s23.661 4.167 43.977-15.364l.113-1.025s1.83-.056 2.06 2.154c.342 3.3.115 8.783-2.08 11.345"/>
                <path fill="#199D7F" d="M601.271 451.636l.105-.96s1.89-.032 2.154 2.047c.392 3.1.221 8.246-2.016 10.625-3.696 3.928-8.816 7.286-14.342 9.752-.05-.188-.077-.3-.077-.3-1.157-3.927-1.829-7.632-2.128-11.168a57.08 57.08 0 0 0 16.304-9.996"/>
                <path fill="#D0CCC8" d="M616.335 198.78c-4.885 13.802-14.14 23.23-20.672 21.06-6.532-2.17-7.868-15.119-2.983-28.92 4.885-13.802 14.141-23.23 20.673-21.06 6.531 2.17 7.867 15.118 2.982 28.92"/>
                <path fill="#FAF9F7" d="M734.23 241.675c-14.816 37.662-67.06 52.536-105.028 37.76-37.968-14.776-47.281-53.607-32.466-91.27 14.817-37.662 46.457-54.509 86.117-45.118 42.41 10.04 70.21 50.752 51.377 98.628"/>
                <path fill="#FAF9F7" d="M596.308 244.592c15.176 18.05 68.868 40.24 118.782 27.558 1.828-.464 3.739.417 4.602 2.083l7.694 14.848s-44.205 13.618-92.446-2.588c-43.812-14.718-51.837-36.737-51.837-36.737l7.593-5.787a4.095 4.095 0 0 1 5.612.623"/>
                <path fill="#D0CCC8" d="M722.39 192.943c-24.965 13.619-24.967 57.528-24.967 57.528-11.501 15.704-35.973 21.024-35.973 21.024 14.934 4.937 9.493 19.55 9.429 19.724 31.414 2.605 55.114-4.887 55.121-4.89l-7.485-14.8a3.983 3.983 0 0 0-2.552-2.064c9.183-6.994 16.52-16.054 20.777-27.025 18.779-48.39-8.683-89.437-50.697-99.478 40.201 14.847 36.348 49.981 36.348 49.981"/>
                <path fill="#D0CCC8" d="M688.235 292.905c-8.998.335-18.035-.043-26.985-1.23-8.942-1.224-17.792-3.26-26.377-6.154a157.274 157.274 0 0 1-12.704-4.84c-2.058-.962-4.14-1.877-6.145-2.958-2.022-1.047-3.987-2.206-5.938-3.385-3.844-2.457-7.572-5.128-10.976-8.195a70.435 70.435 0 0 1-4.87-4.838c-1.5-1.733-2.962-3.498-4.227-5.409l.175-.142c3.044 3.37 6.375 6.406 9.917 9.15 3.539 2.745 7.246 5.258 11.13 7.462 1.924 1.129 3.863 2.238 5.86 3.239 1.96 1.068 3.98 2.027 5.988 3.005a154.93 154.93 0 0 0 12.38 5.177c8.404 3.073 17.11 5.314 25.956 6.756 8.84 1.48 17.822 2.164 26.813 2.134l.003.228M598.95 242.638c3.628 3.726 7.863 6.748 12.26 9.459a114.612 114.612 0 0 0 13.766 7.136c9.457 4.19 19.277 7.653 29.396 10.023a145.588 145.588 0 0 0 30.897 3.826c10.404.235 20.843-.87 31-3.231l.057.217c-10.103 2.655-20.566 4.072-31.06 4.133a146.94 146.94 0 0 1-31.284-3.198c-10.277-2.155-20.438-5.202-29.955-9.74-4.726-2.316-9.363-4.847-13.683-7.864-2.14-1.532-4.243-3.118-6.207-4.87-1.929-1.785-3.8-3.646-5.362-5.748l.175-.143"/>
                <path fill="#D0CCC8" d="M623.647 246.898c-1.646 1.584-3.075 3.222-4.078 4.977-.974 1.778-1.629 3.627-1.639 5.656l-.003.718-.603.242c-1.319.527-2.675 1.342-3.836 2.254-1.17.925-2.226 2.001-3.043 3.25a12.04 12.04 0 0 0-1.77 4.183c-.321 1.543-.35 3.19-.166 4.848l-.224.042c-.38-1.647-.522-3.347-.334-5.012.191-1.636.686-3.247 1.493-4.673.786-1.426 1.841-2.687 3.028-3.788 1.213-1.103 2.492-2.044 4.044-2.853l-.602.949c-.126-1.19-.11-2.423.223-3.592a9.043 9.043 0 0 1 1.623-3.193c.715-.957 1.603-1.781 2.566-2.485.974-.7 2.028-1.3 3.202-1.692l.119.169"/>
                <path fill="#2E616D" d="M732.095 230.306c-5.776 17.286-16.766 29.079-24.545 26.342-7.781-2.738-9.406-18.97-3.63-36.256 5.776-17.285 16.765-29.079 24.545-26.34 7.78 2.737 9.405 18.97 3.63 36.254"/>
                <path fill="#D0CCC8" d="M739.83 205.395l-9.493-6.691-.004.008a7.02 7.02 0 0 0-1.716-.883c-7.574-2.603-18.21 8.427-23.752 24.635-5.544 16.208-3.897 31.457 3.677 34.06.547.189 1.11.297 1.685.346l-.003.007 11.774.66 17.833-52.142"/>
                <path fill="#FAF9F7" d="M747.345 234.595c-4.991 14.614-14.56 24.559-21.375 22.214-6.814-2.345-8.291-16.091-3.3-30.706 4.99-14.613 14.56-24.559 21.374-22.213 6.816 2.344 8.292 16.092 3.301 30.705"/>
                <path fill="#254953" d="M735.001 231.35l8.642 5.467c-4.207 9.62-11.065 15.753-15.889 14.21-5.269-1.687-6.33-11.956-2.355-22.751 3.976-10.795 11.584-18.29 16.851-16.605 4.515 1.446 6.048 9.229 3.658 18.578L735 231.35"/>
                <path fill="#199D7F" d="M735.004 231.348l8.64 5.468c-4.207 9.621-11.064 15.754-15.89 14.21-5.267-1.685-6.331-11.955-2.356-22.75 3.978-10.795 11.584-18.29 16.853-16.604 4.515 1.445 6.047 9.228 3.656 18.576l-10.903 1.1"/>
                <path fill="#FFFFFE" d="M621.73 166.379c-15.8 13.582-25.915 41.743-21.807 58.03 0 0 3.707 20.262 37.793 29.23 38.01 10.002 47.23-7.91 50.32-12.086 6.684-9.025 16.481-30.034 15.433-49.059-1.354-24.502-62.933-42.283-81.74-26.115"/>
                <path fill="#254953" d="M619.73 164.379c-15.8 13.581-25.915 41.743-21.808 58.03 0 0 3.708 20.261 37.794 29.23 38.011 10.002 47.23-7.909 50.322-12.084 6.682-9.027 16.48-30.036 15.43-49.06-1.351-24.502-62.93-42.284-81.737-26.116"/>
                <path fill="#003D78" d="M621.297 167.256c-15.487 13.293-25.398 40.861-21.37 56.807 0 0 3.64 19.835 37.059 28.622 37.265 9.798 46.3-7.735 49.33-11.823 6.55-8.835 16.152-29.4 15.12-48.025-1.331-23.986-61.704-41.406-80.139-25.58"/>
                <path fill="#199D7F" d="M614.613 242.111s18.613-1.732 43.483-12.997c26.162-11.848 41.493-30.223 41.493-30.223.156-1.929.221-3.856.177-5.767 0 0-18.025 20.457-44.632 31.967-23.779 10.286-45.069 13.654-45.069 13.654a49.318 49.318 0 0 0 4.548 3.366"/>
                <path fill="#199D7F" d="M635.946 251.314c36.947 9.733 45.913-7.715 48.918-11.783 5.017-6.787 11.834-20.529 14.22-34.967 0 0-11.912 14.945-37.784 27.403-24.197 11.65-41.746 13.105-41.746 13.105 4.445 2.352 9.832 4.514 16.392 6.242M637.813 173.423c-2.561.17-5.08.576-7.338 1.39-1.128.404-2.184.912-3.12 1.532-.44.275-1.008.753-1.508 1.12-.5.419-1.014.822-1.501 1.262-3.945 3.481-7.342 7.743-10.198 12.33-2.862 4.596-5.18 9.569-6.793 14.777-1.524 5.197-2.515 10.747-1.37 16.208-.869-2.643-1.19-5.457-1.192-8.256.008-2.801.332-5.601.85-8.365 1.085-5.518 2.923-10.902 5.4-16.016 2.484-5.113 5.57-10.006 9.555-14.355 1.021-1.101 2.005-2.098 3.24-3.16 1.288-1.067 2.696-1.928 4.144-2.626 2.902-1.4 5.937-2.192 8.95-2.709l.008-.001c1.918-.33 3.75.933 4.094 2.818.343 1.884-.933 3.68-2.851 4.007a3.674 3.674 0 0 1-.37.044"/>
                <path fill="#199D7F" d="M643.769 172.907c-1.628-.446-2.782-1.691-2.702-3.052.093-1.596 1.847-2.748 3.918-2.573 3.499.297 7.153.797 10.858 1.488 2.042.368 3.403 1.953 3.044 3.513-.36 1.56-2.307 2.516-4.35 2.136a100.659 100.659 0 0 0-9.888-1.356c-.306-.026-.6-.08-.88-.156"/>
                <path fill="#FAF9F7" d="M647.147 249.34c2.262-.391 4.489-.705 6.68-1.14 2.191-.425 4.344-.927 6.446-1.554 2.113-.584 4.152-1.359 6.158-2.195a45.218 45.218 0 0 0 2.97-1.375l1.474-.75c.475-.26.907-.475 1.347-.766 1.752-1.1 3.4-2.487 4.933-4.019a56.276 56.276 0 0 0 4.307-4.972c2.697-3.524 5.053-7.36 7.415-11.281a50.272 50.272 0 0 1-5.368 12.687c-1.201 1.99-2.558 3.905-4.128 5.672-1.548 1.784-3.318 3.418-5.376 4.758-.5.34-1.075.642-1.589.93a32.04 32.04 0 0 1-1.55.778 47.818 47.818 0 0 1-3.218 1.389c-2.177.87-4.461 1.451-6.745 1.887-4.59.811-9.259.786-13.756-.05M726.602 287.358c-35.53.096-48.104 40.927-28.573 55.184 19.532 14.256-.445 30.725-10.388 33.568-9.508 2.72-12.833 47.297 23.695 43.323 0 0 63.314-17.991 55.428-69.325-5.482-35.673-40.162-62.75-40.162-62.75"/>
                <path fill="#003D78" d="M662.807 400.987c.56 15.324 13.242 39.045 32.82 39.764 26.105.957 18.377-25.189 18.377-25.189l-24.866-39.998s-26.89 10.098-26.33 25.423z"/>
                <path fill="#199D7F" d="M713.409 424.951l-34.563-44.235s-6.475 12.049 1.299 27.325c4.558 8.958 11.285 14.52 18.238 17.758 2.813 1.31 3.56 4.945 1.44 7.165a17.386 17.386 0 0 1-3.995 3.1c-6.773 3.862 12.45 7.36 16.772-6.528.052.005.719-3.026.809-4.585"/>
                <path fill="#FAF9F7" d="M699.301 371.532c-.195-3.75-11.868-.636-17.65 5.732-4.976 5.483-4.003 34.025 21.144 44.832 16.448 7.069 23.454-9.392 23.454-9.392s-25.08-5.485-26.948-41.172"/>
                <path fill="#D0CCC8" d="M764.173 350.072c-5.29-35.67-39.236-62.672-39.236-62.672-4.052-.563-9.993.659-13.354 2.307.314.324 18.649 18.417 31.676 41.215 13.155 23.023-6.392 56.382-38.954 67.612 0 0 7.347 8.034-11.971 20.325a39.508 39.508 0 0 0 7.94 4.618c16.336 7.134 23.344-9.6 23.344-9.6 17.836-8.758 45.805-28.378 40.555-63.805"/>
                <path fill="#FADC6E" d="M704.667 354.616c10.267 4.465 49.599 10.689 60.279-.112 0 0 .958 8.836-1.296 16.91-4.025 7.066-43.618 2.509-58.797-14.267l-.186-2.531"/>
                <path fill="#DA842F" d="M741.774 374.157c2.747-4.17 4.898-8.541 6.332-12.966 8.138-.429 15.278-2.136 18.96-5.944.5 5.928.07 11.385-1.054 16.414-.09.168-.16.329-.256.498-1.94 3.475-12.246 4.166-23.982 1.998"/>
                <path fill="#D0CCC8" d="M725.637 414.6c-4.306-.715-8.356-2.775-11.844-5.457-3.517-2.687-6.404-6.14-8.687-9.91l-1.529-2.927c-.274-.48-.475-.99-.672-1.504l-.599-1.532c-.859-2.025-1.34-4.162-1.871-6.273-.504-2.117-.666-4.298-.978-6.43-.08-2.165-.117-4.325-.08-6.469.453 2.119.778 4.229 1.155 6.32l.768 3.094c.281 1.021.415 2.077.805 3.064.711 1.99 1.21 4.043 2.144 5.931.445.95.744 1.965 1.273 2.871l1.492 2.758c2.132 3.59 4.757 6.885 7.88 9.7 3.131 2.796 6.707 5.178 10.743 6.765"/>
                <path fill="#003D78" d="M733.485 330.74c10.777 14.605 28.168 8.808 26.233-2.291 0 0-5.625-12.477-13.702-21.992-13.853-16.32-25.626 6.537-12.531 24.282z"/>
                <path fill="#199D7F" d="M746.434 330.906a29.721 29.721 0 0 1 2.652 5.695c6.72-.06 11.865-4.231 10.67-10.05-.19-.353-.37-.713-.563-1.064l-.01-.018c-4.07-7.373-8.97-13.94-13.689-19.414h-.002c-7.416-7.886-14.128-6.077-17.015-.214 5.466 6.599 12.006 15.234 17.957 25.065"/>
                <path fill="#D0CCC8" d="M578.375 267.399s-13.119 6.469-19.682 21.506c-.022 1.316.491 4.127 1.181 6.104 0 0 8.29 17.853 38.904 30.308 0 0 9.045-18.322 20.4-30.28 0 0 1.599-3.398-1.182-6.106-6.787-3.251-25.018-7.229-39.621-21.532"/>
                <path fill="#FAF9F7" d="M577.498 260.291s-12.23 9.333-18.534 27.607c0 0 8.313 17.856 39 30.32 0 0 9.061-18.321 20.438-30.277 0 0-21.747-8.927-40.904-27.65"/>
                <path fill="#D0CCC8" d="M605.038 293.992c-1.171 1.205-2.216 2.53-3.238 3.868-1.028 1.338-1.955 2.749-2.869 4.168-.89 1.434-1.781 2.873-2.57 4.369a82.332 82.332 0 0 0-2.271 4.539l.706-.266c-2.149-1.074-4.254-2.347-6.323-3.629a138.309 138.309 0 0 1-6.086-4.082c-1.984-1.428-3.974-2.858-5.881-4.4l-2.876-2.299-2.836-2.357c3.405 3.568 7.13 6.818 11.037 9.833a93.289 93.289 0 0 0 6.068 4.234c2.083 1.335 4.202 2.574 6.448 3.675l.479.236.229-.5c.693-1.523 1.381-3.048 2.144-4.536a101.23 101.23 0 0 1 2.353-4.434c.824-1.457 1.717-2.873 2.608-4.293a59.785 59.785 0 0 1 2.878-4.126"/>
                <path fill="#FADC6E" d="M577.158 287.863c-2.69 3.694-6.956 4.89-9.524 2.673-2.57-2.216-2.47-7.007.223-10.7 2.69-3.693 6.956-4.89 9.524-2.674 2.57 2.217 2.47 7.008-.223 10.701"/>
                <path fill="#254953" d="M592.11 307.253c.554.068 1.122-.158 1.443-.626.444-.654.237-1.53-.465-1.959l-6.55-4.002c-.701-.428-1.63-.248-2.075.406-.445.653-.238 1.53.464 1.958l6.55 4.002c.199.121.413.194.632.22"/>
                <path fill="#2E616D" d="M596.097 302.251a1.52 1.52 0 0 0 1.48-.695 1.46 1.46 0 0 0-.517-2.03l-6.54-3.873c-.715-.425-1.65-.206-2.083.49-.432.696-.2 1.605.519 2.03l6.54 3.873c.189.112.394.18.6.205"/>
                <path fill="#2E919C" d="M596.086 301.25a1.53 1.53 0 0 0 1.516-.766 1.542 1.542 0 0 0-.569-2.097l-6.534-3.748a1.525 1.525 0 0 0-2.086.576 1.542 1.542 0 0 0 .569 2.097l6.534 3.747c.183.104.376.167.57.191"/>
                <path fill="#E1665A" d="M591.781 284.689c-1.8 2.041-4.726 2.65-6.533 1.358-1.809-1.29-1.815-3.993-.015-6.036 1.8-2.043 4.727-2.65 6.534-1.36 1.808 1.292 1.815 3.995.014 6.038"/>
                <path fill="#FFFFFE" d="M475.011 453.289a.5.5 0 1 0 .993.122.5.5 0 0 0-.993-.122M512.132 481.304a.378.378 0 1 0 .751.09.378.378 0 0 0-.75-.09M553.011 503.289a.5.5 0 1 0 .992.122.5.5 0 0 0-.992-.122M534.011 443.289a.5.5 0 1 0 .993.121.5.5 0 0 0-.993-.121M520.022 420.605a2 2 0 1 0 3.972.488 2 2 0 0 0-3.972-.488M442.012 443.289a.5.5 0 1 0 .99.121.5.5 0 0 0-.99-.121M458.022 464.605a2 2 0 1 0 3.97.49 2 2 0 0 0-3.97-.49M507.011 490.288a.5.5 0 1 0 .993.123.5.5 0 0 0-.993-.123M575.022 516.606a2 2 0 1 0 3.97.487 2 2 0 0 0-3.97-.487M510.273 124.32a.236.236 0 1 0 .264-.205.237.237 0 0 0-.264.206M461.022 125.606a2 2 0 1 0 3.972.486 2 2 0 0 0-3.972-.486M475.011 169.289a.5.5 0 1 0 .993.121.5.5 0 0 0-.993-.121M470.022 176.606a2 2 0 1 0 3.97.488 2 2 0 0 0-3.97-.488M461.022 198.606a2 2 0 1 0 3.97.487 2 2 0 0 0-3.97-.487M451.011 228.289a.5.5 0 1 0 .992.122.5.5 0 0 0-.992-.122M535.011 159.288a.5.5 0 1 0 .993.122.5.5 0 0 0-.993-.122M498.022 277.606a2 2 0 1 0 3.97.488 2 2 0 0 0-3.97-.488M459.022 253.606a2.001 2.001 0 0 0 3.97.487 2 2 0 1 0-3.97-.487M574.022 172.606a2 2 0 1 0 3.973.486 2 2 0 0 0-3.973-.486M575.011 95.288a.5.5 0 1 0 .993.122.5.5 0 0 0-.993-.122M614.226 95.315c-.02.156.09.296.247.315a.283.283 0 1 0 .07-.561.283.283 0 0 0-.317.246M631.011 131.289a.5.5 0 1 0 .992.122.5.5 0 0 0-.992-.122M780.022 166.605a2 2 0 1 0 3.97.49 2 2 0 0 0-3.97-.49M770.022 160.606a2 2 0 1 0 3.969.488 2 2 0 0 0-3.969-.488M768.022 138.606a2 2 0 1 0 3.97.488 2 2 0 0 0-3.97-.488M723.022 120.606a2 2 0 1 0 3.97.488 2 2 0 0 0-3.97-.488M675.011 147.288a.5.5 0 1 0 .993.122.5.5 0 0 0-.993-.122M664.022 116.606a2 2 0 1 0 3.971.487 2 2 0 0 0-3.97-.487M447.011 404.288a.5.5 0 1 0 .992.123.5.5 0 0 0-.992-.123M441.022 395.607a2 2 0 1 0 3.969.487 2 2 0 0 0-3.969-.487M451.011 344.288a.5.5 0 1 0 .994.122.5.5 0 0 0-.994-.122"/>
            </g>
        </g>
        <path fill="#FADC6E" d="M463 200c0 75.112-61.338 136-137 136s-137-60.888-137-136S250.338 64 326 64s137 60.888 137 136"/>
        <path fill="#EEA34E" d="M454 205c0 72.349-59.323 131-132.5 131-73.177 0-132.5-58.651-132.5-131 0-72.349 59.323-131 132.5-131C394.678 74 454 132.651 454 205"/>
        <path fill="#DF9136" d="M270 196.5c0 14.084-11.864 25.5-26.498 25.5C228.864 222 217 210.584 217 196.5c0-14.082 11.864-25.5 26.502-25.5C258.136 171 270 182.418 270 196.5M435 174.502C435 212.333 404.33 243 366.5 243c-37.832 0-68.5-30.667-68.5-68.498C298 136.67 328.668 106 366.5 106c37.83 0 68.5 30.67 68.5 68.502M319 253a7 7 0 1 1-14.002-.002A7 7 0 0 1 319 253M281 263.5c0 12.426-10.074 22.5-22.5 22.5S236 275.926 236 263.5s10.074-22.5 22.5-22.5 22.5 10.074 22.5 22.5M163 311.5a9.5 9.5 0 0 1-9.5 9.5 9.5 9.5 0 0 1-9.5-9.5 9.5 9.5 0 0 1 9.5-9.5 9.5 9.5 0 0 1 9.5 9.5M432 54.5a9.5 9.5 0 0 1-9.5 9.5 9.5 9.5 0 0 1-9.5-9.5 9.5 9.5 0 0 1 9.5-9.5 9.5 9.5 0 0 1 9.5 9.5M174 223.5c0 6.352-5.148 11.5-11.5 11.5-6.35 0-11.5-5.148-11.5-11.5 0-6.35 5.15-11.5 11.5-11.5 6.352 0 11.5 5.15 11.5 11.5"/>
        <path fill="#DF9136" d="M293 266.5c0 6.351-5.148 11.5-11.5 11.5-6.35 0-11.5-5.149-11.5-11.5 0-6.353 5.15-11.5 11.5-11.5 6.352 0 11.5 5.147 11.5 11.5M243 295.5c0 11.875-9.627 21.5-21.5 21.5-11.875 0-21.5-9.625-21.5-21.5s9.625-21.5 21.5-21.5c11.873 0 21.5 9.625 21.5 21.5"/>
        <g>
            <path fill="#DA842F" d="M103.87 204.892s13.546-2.367 16.899 29.872c-31.487-8.689-26.858-21.537-26.858-21.537l9.958-8.335"/>
            <path fill="#EEA34E" d="M101.297 206.36s10.114-1.878 12.447 22.717c-23.43-6.473-19.913-16.304-19.913-16.304l7.466-6.412"/>
            <path fill="#FADC6E" d="M101.54 205.864s6.313-1.132 7.827 14.024c-14.644-4.043-12.472-10.09-12.472-10.09l4.645-3.934"/>
            <path fill="#254953" d="M81.344 209.028s-5.607 11.329 9.697 19.788c1.26.697.98 2.593-.435 2.856-9.482 1.761-31.286 2.541-26.19-29.22l16.928 6.576M101.139 193.305s11.99-3.584 17.742 12.87c.473 1.353 2.373 1.4 2.864.058 3.275-9.01 7.614-30.278-24.255-30.652l3.649 17.724"/>
            <path fill="#E1665A" d="M24.56 121.518s-3.824 8.736-3.37 21.567l25.757-21.179c-12.91-2.59-22.387-.388-22.387-.388"/>
            <path fill="#2E616D" d="M77.788 139.13c-10.513-10.213-21.677-14.738-31.005-16.584l-24.974 21.301c.237 9.6 2.777 21.482 10.976 33.67 11.373 16.902 30.13 26.402 48.765 32.379l19.641-16.755c-2.703-19.565-8.822-39.844-23.403-54.011"/>
            <path fill="#E1665A" d="M93.434 212.304c1.424.37 2.941-.013 4.076-1.001l4.275-3.727a4.838 4.838 0 0 0 1.642-3.983c-.283-3.831-.666-7.746-1.177-11.686l-19.768 17.236a195.187 195.187 0 0 0 10.952 3.16"/>
            <path fill="#622827" d="M22.123 143.602l8.503-7.365c-3.872-8.836-4.967-14.456-4.967-14.456s-3.8 8.872-3.536 21.82"/>
            <path fill="#254953" d="M29.704 136.216l-8.533 7.27c.243 9.67 2.808 21.638 11.08 33.917 11.475 17.03 30.394 26.605 49.187 32.631l8.944-7.62c-36.709-23.135-53.443-50.071-60.678-66.198"/>
            <path fill="#622827" d="M82.632 210.713a208.89 208.89 0 0 0 11.447 3.298 4.724 4.724 0 0 0 4.246-.999l4.437-3.782a218.561 218.561 0 0 1-10.862-6.419l-9.268 7.902"/>
            <path fill="#D0CCC8" d="M64.34 140.836c5.525 6.984 4.506 17.59-2.275 23.687-6.778 6.094-16.753 5.374-22.277-1.612-5.525-6.987-4.509-17.592 2.272-23.688 6.78-6.096 16.756-5.373 22.28 1.613"/>
            <path fill="#254953" d="M62.447 144.124c4.7 5.569 3.997 13.892-1.572 18.593-5.568 4.7-13.892 3.998-18.594-1.571-4.699-5.569-3.996-13.893 1.572-18.593 5.568-4.7 13.894-3.997 18.594 1.571"/>
        </g>
    </g>
</svg>
