<?xml version="1.0" encoding="UTF-8"?>
<svg width="23px" height="24px" viewBox="0 0 23 24" version="1.1" xmlns="http://www.w3.org/2000/svg" xmlns:xlink="http://www.w3.org/1999/xlink">
    <!-- Generator: Sketch 52.5 (67469) - http://www.bohemiancoding.com/sketch -->
    <title>to-do</title>
    <desc>Created with Sketch.</desc>
    <g id="11.-Penilaian-Akhir-Aspek-Sikap" stroke="none" stroke-width="1" fill="none" fill-rule="evenodd">
        <g id="4.4.5-Teacher_Website_Penilaian_Sikap_Topik_Tersedia_Lihat_Sikap_Kedisiplinan_Belum_Isi" transform="translate(-1520.000000, -738.000000)" fill="#1A9D7F">
            <g id="Group-14" transform="translate(139.000000, 230.000000)">
                <path d="M1387.3927,523.296703 L1396.76088,523.296703 C1397.34347,523.296703 1397.81582,522.824352 1397.81582,522.241758 C1397.81582,521.659165 1397.34347,521.186813 1396.76088,521.186813 L1387.3927,521.186813 C1386.81011,521.186813 1386.33776,521.659165 1386.33776,522.241758 C1386.33776,522.824352 1386.81011,523.296703 1387.3927,523.296703 M1391.20738,511.956044 L1392.9462,511.956044 C1393.52879,511.956044 1394.00114,511.483692 1394.00114,510.901099 C1394.00114,510.318505 1393.52879,509.846154 1392.9462,509.846154 L1391.20738,509.846154 C1390.62479,509.846154 1390.15244,510.318505 1390.15244,510.901099 C1390.15244,511.483692 1390.62479,511.956044 1391.20738,511.956044 M1402.0989,509.846154 L1399.89697,509.846154 C1399.31437,509.846154 1398.84202,510.318505 1398.84202,510.901099 C1398.84202,511.483692 1399.31437,511.956044 1399.89697,511.956044 L1401.04396,511.956044 L1401.04396,529.89011 L1383.10989,529.89011 L1383.10989,511.956044 L1384.25662,511.956044 C1384.83921,511.956044 1385.31156,511.483692 1385.31156,510.901099 C1385.31156,510.318505 1384.83921,509.846154 1384.25662,509.846154 L1382.05495,509.846154 C1381.47235,509.846154 1381,510.413978 1381,510.996571 L1381,530.945055 C1381,531.527648 1381.47235,532 1382.05495,532 L1402.0989,532 C1402.68149,532 1403.15385,531.527648 1403.15385,530.945055 L1403.15385,510.996571 C1403.15385,510.413978 1402.68149,509.846154 1402.0989,509.846154 M1387.3927,518.549451 L1396.76088,518.549451 C1397.34347,518.549451 1397.81582,518.077099 1397.81582,517.494505 C1397.81582,516.911912 1397.34347,516.43956 1396.76088,516.43956 L1387.3927,516.43956 C1386.81011,516.43956 1386.33776,516.911912 1386.33776,517.494505 C1386.33776,518.077099 1386.81011,518.549451 1387.3927,518.549451 M1396.2967,514.010549 C1397.02488,514.010549 1397.61538,513.420044 1397.61538,512.691868 L1397.61538,509.318681 C1397.61538,508.590505 1397.02488,508 1396.2967,508 C1395.56853,508 1394.97802,508.590505 1394.97802,509.318681 L1394.97802,512.691868 C1394.97802,513.420044 1395.56853,514.010549 1396.2967,514.010549 M1386.53846,512.691868 L1386.53846,509.318681 C1386.53846,508.590505 1387.12897,508 1387.85714,508 C1388.58532,508 1389.17582,508.590505 1389.17582,509.318681 L1389.17582,512.691868 C1389.17582,513.420044 1388.58532,514.010549 1387.85714,514.010549 C1387.12897,514.010549 1386.53846,513.420044 1386.53846,512.691868" id="to-do"></path>
            </g>
        </g>
    </g>
</svg>