<?xml version="1.0" encoding="UTF-8"?>
<svg width="505px" height="694px" viewBox="0 0 505 694" version="1.1" xmlns="http://www.w3.org/2000/svg" xmlns:xlink="http://www.w3.org/1999/xlink">
    <!-- Generator: Sketch 52.5 (67469) - http://www.bohemiancoding.com/sketch -->
    <title>ic_logo_gredu copy</title>
    <desc>Created with Sketch.</desc>
    <g id="Penilaian" stroke="none" stroke-width="1" fill="none" fill-rule="evenodd">
        <g id="Artboard" transform="translate(-26.000000, 0.000000)" fill-rule="nonzero">
            <g id="ic_logo_gredu-copy" transform="translate(26.000000, 0.000000)">
                <g id="gredu_logo-2">
                    <g id="icon">
                        <path d="M504.793911,150.959828 L504.793911,252.617593 L429.049908,297.8947 L504.793911,343.182744 L504.793911,542.955842 L252.147798,693.712205 L0,542.955842 L0,150.959828 L252.147798,0 L504.793911,150.959828 Z M176.90211,256.380657 L176.90211,436.274839 L252.147798,481.059683 L319.42043,440.803643 L243.676428,395.515598 L243.676428,294.371045 L317.292763,250.265091 L252.147798,211.344212 L176.90211,256.380657 Z" id="Path-11" fill="#000000"></path>
                        <polygon id="Rectangle" fill="#44BCEE" points="422.571802 205.954681 489.34612 165.552966 489.34612 243.045845 422.571802 282.944358"></polygon>
                        <polygon id="Path-2" fill="#229C80" points="25.9124218 155.168709 90.2876405 193.997387 252.156672 97.1176976 413.718489 193.567294 478.400923 154.740458 251.787787 19.6248197"></polygon>
                        <polygon id="Path-3" fill="#0C7CC0" points="96.7570949 477.386295 96.7570949 208.785453 244.67306 120.264921 244.67306 196.751398 160.956004 246.819848 160.956004 438.791496"></polygon>
                        <polygon id="Path-4" fill="#FBC547" points="252.21054 576.356366 399.499756 488.607691 334.946914 450.364453 252.147798 499.869889 170.561117 450.924509 107.137898 489.439074"></polygon>
                        <polygon id="Path-5" fill="#FBC547" points="414.159274 385.126434 478.515278 346.636523 332.508525 259.371996 268.093904 297.743745"></polygon>
                        <polygon id="Path-6" fill="#E63C2B" points="423.568435 399.390247 423.568435 493.658306 260.619166 591.215323 260.619166 669.357288 488.847805 532.889335 488.847805 360.291562"></polygon>
                        <polygon id="Path-8" fill="#EFE2E2" points="81.723792 494.142897 81.723792 207.821809 15.9461057 168.068969 15.9461057 532.839028 241.683165 667.847686 241.683165 589.750993"></polygon>
                        <polygon id="Path-9" fill="#EFE2E2" points="259.124218 309.971511 259.124218 388.498548 408.618959 478.04048 408.618959 399.314755"></polygon>
                        <polygon id="Path-10" fill="#EFE2E2" points="260.120851 120.516521 260.120851 197.002998 406.625696 284.559886 406.625696 208.059676"></polygon>
                    </g>
                    <g id="Dot-Pattern" opacity="0.382254464" transform="translate(5.249554, 144.025452)" fill="#000000">
                        <g id="Group-2" transform="translate(0.237336, 5.859863)">
                            <ellipse id="Oval-2" cx="9.71337864" cy="9.65349327" rx="9.71337864" ry="9.65349327"></ellipse>
                            <ellipse id="Oval-2" cx="26.1740496" cy="31.8587252" rx="9.71337864" ry="9.65349327"></ellipse>
                            <ellipse id="Oval-2" cx="48.1216109" cy="54.0639571" rx="9.71337864" ry="9.65349327"></ellipse>
                            <ellipse id="Oval-2" cx="70.0691722" cy="76.269189" rx="9.71337864" ry="9.65349327"></ellipse>
                        </g>
                        <g id="Group-2" transform="translate(0.237336, 50.270327)">
                            <ellipse id="Oval-2" cx="9.71337864" cy="9.65349327" rx="9.71337864" ry="9.65349327"></ellipse>
                            <ellipse id="Oval-2" cx="26.1740496" cy="31.8587252" rx="9.71337864" ry="9.65349327"></ellipse>
                            <ellipse id="Oval-2" cx="48.1216109" cy="54.0639571" rx="9.71337864" ry="9.65349327"></ellipse>
                            <ellipse id="Oval-2" cx="70.0691722" cy="76.269189" rx="9.71337864" ry="9.65349327"></ellipse>
                        </g>
                        <g id="Group-2" transform="translate(0.237336, 94.680791)">
                            <ellipse id="Oval-2" cx="9.71337864" cy="9.65349327" rx="9.71337864" ry="9.65349327"></ellipse>
                            <ellipse id="Oval-2" cx="26.1740496" cy="31.8587252" rx="9.71337864" ry="9.65349327"></ellipse>
                            <ellipse id="Oval-2" cx="48.1216109" cy="54.0639571" rx="9.71337864" ry="9.65349327"></ellipse>
                            <ellipse id="Oval-2" cx="70.0691722" cy="76.269189" rx="9.71337864" ry="9.65349327"></ellipse>
                        </g>
                        <g id="Group-2" transform="translate(0.237336, 144.642563)">
                            <ellipse id="Oval-2" cx="9.71337864" cy="9.65349327" rx="9.71337864" ry="9.65349327"></ellipse>
                            <ellipse id="Oval-2" cx="26.1740496" cy="31.8587252" rx="9.71337864" ry="9.65349327"></ellipse>
                            <ellipse id="Oval-2" cx="48.1216109" cy="54.0639571" rx="9.71337864" ry="9.65349327"></ellipse>
                            <ellipse id="Oval-2" cx="70.0691722" cy="76.269189" rx="9.71337864" ry="9.65349327"></ellipse>
                        </g>
                        <g id="Group-2" transform="translate(0.237336, 194.604334)">
                            <ellipse id="Oval-2" cx="9.71337864" cy="9.65349327" rx="9.71337864" ry="9.65349327"></ellipse>
                            <ellipse id="Oval-2" cx="26.1740496" cy="31.8587252" rx="9.71337864" ry="9.65349327"></ellipse>
                            <ellipse id="Oval-2" cx="48.1216109" cy="54.0639571" rx="9.71337864" ry="9.65349327"></ellipse>
                            <ellipse id="Oval-2" cx="70.0691722" cy="76.269189" rx="9.71337864" ry="9.65349327"></ellipse>
                        </g>
                        <g id="Group-2" transform="translate(0.237336, 244.566106)">
                            <ellipse id="Oval-2" cx="9.71337864" cy="9.65349327" rx="9.71337864" ry="9.65349327"></ellipse>
                            <ellipse id="Oval-2" cx="26.1740496" cy="31.8587252" rx="9.71337864" ry="9.65349327"></ellipse>
                            <ellipse id="Oval-2" cx="48.1216109" cy="54.0639571" rx="9.71337864" ry="9.65349327"></ellipse>
                            <ellipse id="Oval-2" cx="70.0691722" cy="76.269189" rx="9.71337864" ry="9.65349327"></ellipse>
                            <ellipse id="Oval-2" cx="108.477404" cy="120.679653" rx="9.71337864" ry="9.65349327"></ellipse>
                        </g>
                        <g id="Group-2" transform="translate(0.237336, 294.527879)">
                            <ellipse id="Oval-2" cx="9.71337864" cy="9.65349327" rx="9.71337864" ry="9.65349327"></ellipse>
                            <ellipse id="Oval-2" cx="26.1740496" cy="31.8587252" rx="9.71337864" ry="9.65349327"></ellipse>
                            <ellipse id="Oval-2" cx="48.1216109" cy="54.0639571" rx="9.71337864" ry="9.65349327"></ellipse>
                            <ellipse id="Oval-2" cx="70.0691722" cy="76.269189" rx="9.71337864" ry="9.65349327"></ellipse>
                            <ellipse id="Oval-2" cx="86.5298432" cy="98.4744209" rx="9.71337864" ry="9.65349327"></ellipse>
                            <ellipse id="Oval-2" cx="108.477404" cy="120.679653" rx="9.71337864" ry="9.65349327"></ellipse>
                        </g>
                        <g id="Group-2" transform="translate(99.001362, 405.554037)">
                            <ellipse id="Oval-2" cx="9.71337864" cy="9.65349327" rx="9.71337864" ry="9.65349327"></ellipse>
                            <ellipse id="Oval-2" cx="26.1740496" cy="31.8587252" rx="9.71337864" ry="9.65349327"></ellipse>
                            <ellipse id="Oval-2" cx="48.1216109" cy="54.0639571" rx="9.71337864" ry="9.65349327"></ellipse>
                            <ellipse id="Oval-2" cx="70.0691722" cy="76.269189" rx="9.71337864" ry="9.65349327"></ellipse>
                            <ellipse id="Oval-2" cx="92.0167336" cy="98.4744209" rx="9.71337864" ry="9.65349327"></ellipse>
                        </g>
                        <g id="Group-2" transform="translate(99.001362, 355.592265)">
                            <ellipse id="Oval-2" cx="9.71337864" cy="9.65349327" rx="9.71337864" ry="9.65349327"></ellipse>
                            <ellipse id="Oval-2" cx="26.1740496" cy="31.8587252" rx="9.71337864" ry="9.65349327"></ellipse>
                            <ellipse id="Oval-2" cx="48.1216109" cy="54.0639571" rx="9.71337864" ry="9.65349327"></ellipse>
                            <ellipse id="Oval-2" cx="70.0691722" cy="76.269189" rx="9.71337864" ry="9.65349327"></ellipse>
                            <ellipse id="Oval-2" cx="86.5298432" cy="98.4744209" rx="9.71337864" ry="9.65349327"></ellipse>
                            <ellipse id="Oval-2" cx="108.477404" cy="120.679653" rx="9.71337864" ry="9.65349327"></ellipse>
                            <ellipse id="Oval-2" cx="130.424966" cy="142.884885" rx="9.71337864" ry="9.65349327"></ellipse>
                        </g>
                        <g id="Group-2" transform="translate(181.304716, 405.554037)">
                            <ellipse id="Oval-2" cx="9.71337864" cy="9.65349327" rx="9.71337864" ry="9.65349327"></ellipse>
                            <ellipse id="Oval-2" cx="31.66094" cy="31.8587252" rx="9.71337864" ry="9.65349327"></ellipse>
                            <ellipse id="Oval-2" cx="53.6085013" cy="54.0639571" rx="9.71337864" ry="9.65349327"></ellipse>
                        </g>
                        <g id="Group-2" transform="translate(0.237336, 344.489650)">
                            <ellipse id="Oval-2" cx="9.71337864" cy="9.65349327" rx="9.71337864" ry="9.65349327"></ellipse>
                            <ellipse id="Oval-2" cx="26.1740496" cy="31.8587252" rx="9.71337864" ry="9.65349327"></ellipse>
                            <ellipse id="Oval-2" cx="48.1216109" cy="54.0639571" rx="9.71337864" ry="9.65349327"></ellipse>
                            <ellipse id="Oval-2" cx="70.0691722" cy="76.269189" rx="9.71337864" ry="9.65349327"></ellipse>
                            <ellipse id="Oval-2" cx="86.5298432" cy="98.4744209" rx="9.71337864" ry="9.65349327"></ellipse>
                        </g>
                        <g id="Group-2" transform="translate(263.608072, 0.308555)">
                            <ellipse id="Oval-2" cx="9.71337864" cy="9.65349327" rx="9.71337864" ry="9.65349327"></ellipse>
                            <ellipse id="Oval-2" cx="26.1740496" cy="31.8587252" rx="9.71337864" ry="9.65349327"></ellipse>
                            <ellipse id="Oval-2" cx="48.1216109" cy="54.0639571" rx="9.71337864" ry="9.65349327"></ellipse>
                            <ellipse id="Oval-2" cx="70.0691722" cy="76.269189" rx="9.71337864" ry="9.65349327"></ellipse>
                            <ellipse id="Oval-2" cx="86.5298432" cy="98.4744209" rx="9.71337864" ry="9.65349327"></ellipse>
                            <ellipse id="Oval-2" cx="108.477404" cy="120.679653" rx="9.71337864" ry="9.65349327"></ellipse>
                        </g>
                        <g id="Group-2" transform="translate(312.990084, 5.859863)">
                            <ellipse id="Oval-2" cx="9.71337864" cy="9.65349327" rx="9.71337864" ry="9.65349327"></ellipse>
                            <ellipse id="Oval-2" cx="26.1740496" cy="31.8587252" rx="9.71337864" ry="9.65349327"></ellipse>
                            <ellipse id="Oval-2" cx="48.1216109" cy="54.0639571" rx="9.71337864" ry="9.65349327"></ellipse>
                            <ellipse id="Oval-2" cx="70.0691722" cy="76.269189" rx="9.71337864" ry="9.65349327"></ellipse>
                            <ellipse id="Oval-2" cx="86.5298432" cy="98.4744209" rx="9.71337864" ry="9.65349327"></ellipse>
                        </g>
                        <g id="Group-2" transform="translate(263.608072, 44.719019)">
                            <ellipse id="Oval-2" cx="9.71337864" cy="9.65349327" rx="9.71337864" ry="9.65349327"></ellipse>
                            <ellipse id="Oval-2" cx="26.1740496" cy="31.8587252" rx="9.71337864" ry="9.65349327"></ellipse>
                        </g>
                        <g id="Group-2" transform="translate(263.608072, 189.053027)">
                            <ellipse id="Oval-2" cx="9.71337864" cy="9.65349327" rx="9.71337864" ry="9.65349327"></ellipse>
                            <ellipse id="Oval-2" cx="26.1740496" cy="31.8587252" rx="9.71337864" ry="9.65349327"></ellipse>
                            <ellipse id="Oval-2" cx="48.1216109" cy="54.0639571" rx="9.71337864" ry="9.65349327"></ellipse>
                            <ellipse id="Oval-2" cx="70.0691722" cy="76.269189" rx="9.71337864" ry="9.65349327"></ellipse>
                            <ellipse id="Oval-2" cx="86.5298432" cy="98.4744209" rx="9.71337864" ry="9.65349327"></ellipse>
                            <ellipse id="Oval-2" cx="108.477404" cy="120.679653" rx="9.71337864" ry="9.65349327"></ellipse>
                        </g>
                        <g id="Group-2" transform="translate(258.121181, 233.463491)">
                            <ellipse id="Oval-2" cx="9.71337864" cy="9.65349327" rx="9.71337864" ry="9.65349327"></ellipse>
                            <ellipse id="Oval-2" cx="26.1740496" cy="31.8587252" rx="9.71337864" ry="9.65349327"></ellipse>
                        </g>
                        <g id="Group-2" transform="translate(312.990084, 194.604334)">
                            <ellipse id="Oval-2" cx="9.71337864" cy="9.65349327" rx="9.71337864" ry="9.65349327"></ellipse>
                            <ellipse id="Oval-2" cx="26.1740496" cy="31.8587252" rx="9.71337864" ry="9.65349327"></ellipse>
                            <ellipse id="Oval-2" cx="48.1216109" cy="54.0639571" rx="9.71337864" ry="9.65349327"></ellipse>
                            <ellipse id="Oval-2" cx="70.0691722" cy="76.269189" rx="9.71337864" ry="9.65349327"></ellipse>
                            <ellipse id="Oval-2" cx="86.5298432" cy="98.4744209" rx="9.71337864" ry="9.65349327"></ellipse>
                        </g>
                    </g>
                </g>
            </g>
        </g>
    </g>
</svg>