<svg xmlns="http://www.w3.org/2000/svg" width="200" height="62" viewBox="0 0 200 62">
    <g fill="none" fill-rule="nonzero">
        <path fill="#FFF" d="M74.738 51.901c-3.012 0-5.44-.584-7.285-1.751-1.844-1.167-2.993-2.842-3.444-5.023l6.437-.747c.226.996.715 1.78 1.468 2.354.753.574 1.751.861 2.993.861 1.77 0 3.069-.555 3.897-1.665.828-1.11 1.242-2.774 1.242-4.994v-1.32l.057-2.47h-.057c-1.43 3.101-4.085 4.632-7.962 4.594-2.899 0-5.139-1.1-6.72-3.301-1.581-2.201-2.372-5.349-2.372-9.444 0-4.095.819-7.262 2.457-9.501 1.637-2.24 4-3.359 7.087-3.359 3.614 0 6.117 1.512 7.51 4.535h.113c0-.535.038-1.272.113-2.21.075-.937.15-1.56.226-1.866h6.042a132.948 132.948 0 0 0-.113 5.856v18.6c0 3.598-.997 6.306-2.993 8.124-1.995 1.818-4.894 2.727-8.696 2.727zm5.365-23.021c0-2.603-.452-4.631-1.356-6.085-.903-1.455-2.202-2.182-3.896-2.182-3.426 0-5.139 2.794-5.139 8.382 0 5.473 1.694 8.21 5.082 8.21 1.695 0 3.003-.718 3.925-2.154.922-1.435 1.384-3.492 1.384-6.171zM92.92 41.797v-19.29c0-1.377-.018-2.525-.056-3.444-.038-.919-.075-1.741-.113-2.469h6.099c.037.268.103 1.12.197 2.555.094 1.435.142 2.383.142 2.842h.056c.64-1.76 1.205-3.005 1.694-3.732.49-.727 1.064-1.263 1.722-1.607.66-.345 1.497-.517 2.513-.517.829 0 1.487.115 1.977.345v5.453c-1.054-.23-1.958-.344-2.71-.344-1.62 0-2.871.66-3.756 1.98-.885 1.321-1.327 3.282-1.327 5.885v12.343H92.92zm28.348.46c-3.727 0-6.588-1.12-8.583-3.36-1.995-2.238-2.993-5.5-2.993-9.787 0-4.172 1.016-7.377 3.05-9.616 2.032-2.24 4.912-3.359 8.64-3.359 3.538 0 6.249 1.206 8.131 3.617 1.882 2.411 2.824 5.913 2.824 10.506v.23h-15.869c0 2.449.443 4.296 1.327 5.54.885 1.243 2.156 1.865 3.812 1.865 2.259 0 3.69-.995 4.292-2.985l6.099.517c-1.77 4.554-5.346 6.831-10.73 6.831zm0-21.988c-1.506 0-2.663.535-3.473 1.607-.809 1.072-1.232 2.564-1.27 4.478h9.6c-.113-2.029-.593-3.55-1.44-4.564-.847-1.014-1.986-1.521-3.417-1.521zm31.962 21.528c-.075-.23-.15-.813-.225-1.751a30.068 30.068 0 0 1-.113-2.325h-.113c-1.393 3.024-4.028 4.535-7.906 4.535-2.899 0-5.13-1.138-6.692-3.416-1.562-2.277-2.343-5.482-2.343-9.616 0-4.171.828-7.396 2.484-9.673 1.657-2.277 4.01-3.416 7.06-3.416 1.769 0 3.284.373 4.545 1.12 1.261.746 2.23 1.865 2.908 3.358h.057l-.057-4.133V7.294h6.438v28.992c0 1.569.056 3.406.17 5.511h-6.213zm-.282-12.745c0-2.717-.452-4.803-1.355-6.257-.904-1.455-2.221-2.182-3.953-2.182-1.732 0-3.012.708-3.84 2.124-.828 1.416-1.242 3.579-1.242 6.487 0 5.703 1.675 8.554 5.025 8.554 1.695 0 3.012-.756 3.953-2.267.942-1.512 1.412-3.665 1.412-6.459zm18.861-12.458v14.123c0 4.44 1.468 6.66 4.405 6.66 1.543 0 2.795-.68 3.755-2.039.96-1.358 1.44-3.09 1.44-5.195V16.594h6.438v19.577c0 2.143.056 4.019.17 5.626h-6.1c-.188-2.22-.282-3.885-.282-4.995h-.113c-.866 1.914-1.958 3.301-3.275 4.163-1.318.86-2.88 1.291-4.687 1.291-2.636 0-4.659-.813-6.07-2.44-1.413-1.626-2.118-4.028-2.118-7.204V16.594h6.437z"/>
        <path fill="#FCD25A" d="M193.086 43.323V36.46h6.758v6.863z"/>
        <g>
            <path fill="#000" d="M45.117 13.466v9.068l-6.77 4.039 6.77 4.04v17.82L22.537 61.88 0 48.433V13.466L22.536 0l22.581 13.466zM15.811 22.87v16.047l6.725 3.994 6.013-3.59-6.77-4.04v-9.023l6.58-3.934-5.823-3.472-6.725 4.018z"/>
            <path fill="#44BCEE" d="M37.769 18.372l5.968-3.604v6.912l-5.968 3.56z"/>
            <path fill="#229C80" d="M2.316 13.841l5.754 3.464 14.467-8.642 14.44 8.604 5.781-3.464L22.504 1.751z"/>
            <path fill="#0C7CC0" d="M8.648 42.584v-23.96l13.22-7.896v6.823l-7.482 4.466V39.14z"/>
            <path fill="#FBC547" d="M22.542 51.412l13.164-7.827-5.77-3.412-7.4 4.416-7.292-4.366-5.668 3.436zM37.017 34.354l5.752-3.433-13.05-7.784-5.757 3.422z"/>
            <path fill="#E63C2B" d="M37.858 35.626v8.41l-14.564 8.702v6.97l20.398-12.173V32.139z"/>
            <path fill="#EFE2E2" d="M7.304 44.079v-25.54l-5.879-3.547V47.53l20.176 12.043v-6.966zM23.16 27.65v7.005l13.361 7.987V35.62zM23.249 10.75v6.823l13.094 7.81V18.56z"/>
            <g fill="#000">
                <g transform="translate(.49 13.37)">
                    <ellipse cx=".736" cy=".743" rx="1" ry="1"/>
                    <ellipse cx="2.207" cy="2.724" rx="1" ry="1"/>
                    <ellipse cx="4.168" cy="4.704" rx="1" ry="1"/>
                    <ellipse cx="6.13" cy="6.685" rx="1" ry="1"/>
                </g>
                <g transform="translate(.49 17.332)">
                    <ellipse cx=".736" cy=".743" rx="1" ry="1"/>
                    <ellipse cx="2.207" cy="2.724" rx="1" ry="1"/>
                    <ellipse cx="4.168" cy="4.704" rx="1" ry="1"/>
                    <ellipse cx="6.13" cy="6.685" rx="1" ry="1"/>
                </g>
                <g transform="translate(.49 21.293)">
                    <ellipse cx=".736" cy=".743" rx="1" ry="1"/>
                    <ellipse cx="2.207" cy="2.724" rx="1" ry="1"/>
                    <ellipse cx="4.168" cy="4.704" rx="1" ry="1"/>
                    <ellipse cx="6.13" cy="6.685" rx="1" ry="1"/>
                </g>
                <g transform="translate(.49 25.75)">
                    <ellipse cx=".736" cy=".743" rx="1" ry="1"/>
                    <ellipse cx="2.207" cy="2.724" rx="1" ry="1"/>
                    <ellipse cx="4.168" cy="4.704" rx="1" ry="1"/>
                    <ellipse cx="6.13" cy="6.685" rx="1" ry="1"/>
                </g>
                <g transform="translate(.49 30.206)">
                    <ellipse cx=".736" cy=".743" rx="1" ry="1"/>
                    <ellipse cx="2.207" cy="2.724" rx="1" ry="1"/>
                    <ellipse cx="4.168" cy="4.704" rx="1" ry="1"/>
                    <ellipse cx="6.13" cy="6.685" rx="1" ry="1"/>
                </g>
                <g transform="translate(.49 34.663)">
                    <ellipse cx=".736" cy=".743" rx="1" ry="1"/>
                    <ellipse cx="2.207" cy="2.724" rx="1" ry="1"/>
                    <ellipse cx="4.168" cy="4.704" rx="1" ry="1"/>
                    <ellipse cx="6.13" cy="6.685" rx="1" ry="1"/>
                    <ellipse cx="9.563" cy="10.647" rx="1" ry="1"/>
                </g>
                <g transform="translate(.49 39.12)">
                    <ellipse cx=".736" cy=".743" rx="1" ry="1"/>
                    <ellipse cx="2.207" cy="2.724" rx="1" ry="1"/>
                    <ellipse cx="4.168" cy="4.704" rx="1" ry="1"/>
                    <ellipse cx="6.13" cy="6.685" rx="1" ry="1"/>
                    <ellipse cx="7.601" cy="8.666" rx="1" ry="1"/>
                    <ellipse cx="9.563" cy="10.647" rx="1" ry="1"/>
                </g>
                <g transform="translate(9.318 49.024)">
                    <ellipse cx=".736" cy=".743" rx="1" ry="1"/>
                    <ellipse cx="2.207" cy="2.724" rx="1" ry="1"/>
                    <ellipse cx="4.168" cy="4.704" rx="1" ry="1"/>
                    <ellipse cx="6.13" cy="6.685" rx="1" ry="1"/>
                    <ellipse cx="8.092" cy="8.666" rx="1" ry="1"/>
                </g>
                <g transform="translate(9.318 44.567)">
                    <ellipse cx=".736" cy=".743" rx="1" ry="1"/>
                    <ellipse cx="2.207" cy="2.724" rx="1" ry="1"/>
                    <ellipse cx="4.168" cy="4.704" rx="1" ry="1"/>
                    <ellipse cx="6.13" cy="6.685" rx="1" ry="1"/>
                    <ellipse cx="7.601" cy="8.666" rx="1" ry="1"/>
                    <ellipse cx="9.563" cy="10.647" rx="1" ry="1"/>
                    <ellipse cx="11.525" cy="12.627" rx="1" ry="1"/>
                </g>
                <g transform="translate(16.674 49.024)">
                    <ellipse cx=".736" cy=".743" rx="1" ry="1"/>
                    <ellipse cx="2.697" cy="2.724" rx="1" ry="1"/>
                    <ellipse cx="4.659" cy="4.704" rx="1" ry="1"/>
                </g>
                <g transform="translate(.49 43.577)">
                    <ellipse cx=".736" cy=".743" rx="1" ry="1"/>
                    <ellipse cx="2.207" cy="2.724" rx="1" ry="1"/>
                    <ellipse cx="4.168" cy="4.704" rx="1" ry="1"/>
                    <ellipse cx="6.13" cy="6.685" rx="1" ry="1"/>
                    <ellipse cx="7.601" cy="8.666" rx="1" ry="1"/>
                </g>
                <g transform="translate(24.03 12.875)">
                    <ellipse cx=".736" cy=".743" rx="1" ry="1"/>
                    <ellipse cx="2.207" cy="2.724" rx="1" ry="1"/>
                    <ellipse cx="4.168" cy="4.704" rx="1" ry="1"/>
                    <ellipse cx="6.13" cy="6.685" rx="1" ry="1"/>
                    <ellipse cx="7.601" cy="8.666" rx="1" ry="1"/>
                    <ellipse cx="9.563" cy="10.647" rx="1" ry="1"/>
                </g>
                <g transform="translate(28.444 13.37)">
                    <ellipse cx=".736" cy=".743" rx="1" ry="1"/>
                    <ellipse cx="2.207" cy="2.724" rx="1" ry="1"/>
                    <ellipse cx="4.168" cy="4.704" rx="1" ry="1"/>
                    <ellipse cx="6.13" cy="6.685" rx="1" ry="1"/>
                    <ellipse cx="7.601" cy="8.666" rx="1" ry="1"/>
                </g>
                <g transform="translate(24.03 16.836)">
                    <ellipse cx=".736" cy=".743" rx="1" ry="1"/>
                    <ellipse cx="2.207" cy="2.724" rx="1" ry="1"/>
                </g>
                <g transform="translate(24.03 29.711)">
                    <ellipse cx=".736" cy=".743" rx="1" ry="1"/>
                    <ellipse cx="2.207" cy="2.724" rx="1" ry="1"/>
                    <ellipse cx="4.168" cy="4.704" rx="1" ry="1"/>
                    <ellipse cx="6.13" cy="6.685" rx="1" ry="1"/>
                    <ellipse cx="7.601" cy="8.666" rx="1" ry="1"/>
                    <ellipse cx="9.563" cy="10.647" rx="1" ry="1"/>
                </g>
                <g transform="translate(23.54 33.673)">
                    <ellipse cx=".736" cy=".743" rx="1" ry="1"/>
                    <ellipse cx="2.207" cy="2.724" rx="1" ry="1"/>
                </g>
                <g transform="translate(28.444 30.206)">
                    <ellipse cx=".736" cy=".743" rx="1" ry="1"/>
                    <ellipse cx="2.207" cy="2.724" rx="1" ry="1"/>
                    <ellipse cx="4.168" cy="4.704" rx="1" ry="1"/>
                    <ellipse cx="6.13" cy="6.685" rx="1" ry="1"/>
                    <ellipse cx="7.601" cy="8.666" rx="1" ry="1"/>
                </g>
            </g>
        </g>
    </g>
</svg>
