<svg xmlns="http://www.w3.org/2000/svg" width="37" height="50" viewBox="0 0 37 50">
    <g fill="none" fill-rule="nonzero">
        <path fill="#000" d="M36.253 10.86v7.313l-5.44 3.257 5.44 3.258v14.37L18.109 49.905 0 39.059v-28.2L18.109 0l18.144 10.86zm-23.548 7.583v12.941l5.404 3.222 4.83-2.896-5.439-3.258v-7.276l5.287-3.173-4.678-2.8-5.404 3.24z"/>
        <path fill="#44BCEE" d="M30.348 14.816l4.795-2.907v5.575l-4.795 2.87z"/>
        <path fill="#229C80" d="M1.861 11.162l4.623 2.794 11.625-6.97 11.603 6.939 4.645-2.793-16.274-9.72z"/>
        <path fill="#0C7CC0" d="M6.949 34.342V15.019l10.623-6.367v5.502l-6.013 3.602v13.81z"/>
        <path fill="#FBC547" d="M18.113 41.461l10.578-6.312-4.636-2.751-5.946 3.561-5.86-3.52-4.555 2.77zM29.744 27.705l4.622-2.769-10.486-6.278-4.626 2.76z"/>
        <path fill="#E63C2B" d="M30.42 28.731v6.781L18.716 42.53v5.622l16.39-9.817V25.918z"/>
        <path fill="#EFE2E2" d="M5.87 35.547V14.95l-4.725-2.86v26.24l16.212 9.713v-5.618zM18.61 22.298v5.65l10.736 6.44v-5.662zM18.681 8.67v5.502l10.522 6.298v-5.503z"/>
        <g fill="#000">
            <g transform="translate(.394 10.782)">
                <ellipse cx=".698" cy=".694" rx="1" ry="1"/>
                <ellipse cx="1.88" cy="2.292" rx="1" ry="1"/>
                <ellipse cx="3.456" cy="3.889" rx="1" ry="1"/>
                <ellipse cx="5.032" cy="5.487" rx="1" ry="1"/>
            </g>
            <g transform="translate(.394 13.977)">
                <ellipse cx=".698" cy=".694" rx="1" ry="1"/>
                <ellipse cx="1.88" cy="2.292" rx="1" ry="1"/>
                <ellipse cx="3.456" cy="3.889" rx="1" ry="1"/>
                <ellipse cx="5.032" cy="5.487" rx="1" ry="1"/>
            </g>
            <g transform="translate(.394 17.172)">
                <ellipse cx=".698" cy=".694" rx="1" ry="1"/>
                <ellipse cx="1.88" cy="2.292" rx="1" ry="1"/>
                <ellipse cx="3.456" cy="3.889" rx="1" ry="1"/>
                <ellipse cx="5.032" cy="5.487" rx="1" ry="1"/>
            </g>
            <g transform="translate(.394 20.766)">
                <ellipse cx=".698" cy=".694" rx="1" ry="1"/>
                <ellipse cx="1.88" cy="2.292" rx="1" ry="1"/>
                <ellipse cx="3.456" cy="3.889" rx="1" ry="1"/>
                <ellipse cx="5.032" cy="5.487" rx="1" ry="1"/>
            </g>
            <g transform="translate(.394 24.36)">
                <ellipse cx=".698" cy=".694" rx="1" ry="1"/>
                <ellipse cx="1.88" cy="2.292" rx="1" ry="1"/>
                <ellipse cx="3.456" cy="3.889" rx="1" ry="1"/>
                <ellipse cx="5.032" cy="5.487" rx="1" ry="1"/>
            </g>
            <g transform="translate(.394 27.954)">
                <ellipse cx=".698" cy=".694" rx="1" ry="1"/>
                <ellipse cx="1.88" cy="2.292" rx="1" ry="1"/>
                <ellipse cx="3.456" cy="3.889" rx="1" ry="1"/>
                <ellipse cx="5.032" cy="5.487" rx="1" ry="1"/>
                <ellipse cx="7.791" cy="8.681" rx="1" ry="1"/>
            </g>
            <g transform="translate(.394 31.548)">
                <ellipse cx=".698" cy=".694" rx="1" ry="1"/>
                <ellipse cx="1.88" cy="2.292" rx="1" ry="1"/>
                <ellipse cx="3.456" cy="3.889" rx="1" ry="1"/>
                <ellipse cx="5.032" cy="5.487" rx="1" ry="1"/>
                <ellipse cx="6.214" cy="7.084" rx="1" ry="1"/>
                <ellipse cx="7.791" cy="8.681" rx="1" ry="1"/>
            </g>
            <g transform="translate(7.487 39.535)">
                <ellipse cx=".698" cy=".694" rx="1" ry="1"/>
                <ellipse cx="1.88" cy="2.292" rx="1" ry="1"/>
                <ellipse cx="3.456" cy="3.889" rx="1" ry="1"/>
                <ellipse cx="5.032" cy="5.487" rx="1" ry="1"/>
                <ellipse cx="6.608" cy="7.084" rx="1" ry="1"/>
            </g>
            <g transform="translate(7.487 35.941)">
                <ellipse cx=".698" cy=".694" rx="1" ry="1"/>
                <ellipse cx="1.88" cy="2.292" rx="1" ry="1"/>
                <ellipse cx="3.456" cy="3.889" rx="1" ry="1"/>
                <ellipse cx="5.032" cy="5.487" rx="1" ry="1"/>
                <ellipse cx="6.214" cy="7.084" rx="1" ry="1"/>
                <ellipse cx="7.791" cy="8.681" rx="1" ry="1"/>
                <ellipse cx="9.367" cy="10.279" rx="1" ry="1"/>
            </g>
            <g transform="translate(13.398 39.535)">
                <ellipse cx=".698" cy=".694" rx="1" ry="1"/>
                <ellipse cx="2.274" cy="2.292" rx="1" ry="1"/>
                <ellipse cx="3.85" cy="3.889" rx="1" ry="1"/>
            </g>
            <g transform="translate(.394 35.142)">
                <ellipse cx=".698" cy=".694" rx="1" ry="1"/>
                <ellipse cx="1.88" cy="2.292" rx="1" ry="1"/>
                <ellipse cx="3.456" cy="3.889" rx="1" ry="1"/>
                <ellipse cx="5.032" cy="5.487" rx="1" ry="1"/>
                <ellipse cx="6.214" cy="7.084" rx="1" ry="1"/>
            </g>
            <g transform="translate(19.309 10.383)">
                <ellipse cx=".698" cy=".694" rx="1" ry="1"/>
                <ellipse cx="1.88" cy="2.292" rx="1" ry="1"/>
                <ellipse cx="3.456" cy="3.889" rx="1" ry="1"/>
                <ellipse cx="5.032" cy="5.487" rx="1" ry="1"/>
                <ellipse cx="6.214" cy="7.084" rx="1" ry="1"/>
                <ellipse cx="7.791" cy="8.681" rx="1" ry="1"/>
            </g>
            <g transform="translate(22.855 10.782)">
                <ellipse cx=".698" cy=".694" rx="1" ry="1"/>
                <ellipse cx="1.88" cy="2.292" rx="1" ry="1"/>
                <ellipse cx="3.456" cy="3.889" rx="1" ry="1"/>
                <ellipse cx="5.032" cy="5.487" rx="1" ry="1"/>
                <ellipse cx="6.214" cy="7.084" rx="1" ry="1"/>
            </g>
            <g transform="translate(19.309 13.578)">
                <ellipse cx=".698" cy=".694" rx="1" ry="1"/>
                <ellipse cx="1.88" cy="2.292" rx="1" ry="1"/>
            </g>
            <g transform="translate(19.309 23.96)">
                <ellipse cx=".698" cy=".694" rx="1" ry="1"/>
                <ellipse cx="1.88" cy="2.292" rx="1" ry="1"/>
                <ellipse cx="3.456" cy="3.889" rx="1" ry="1"/>
                <ellipse cx="5.032" cy="5.487" rx="1" ry="1"/>
                <ellipse cx="6.214" cy="7.084" rx="1" ry="1"/>
                <ellipse cx="7.791" cy="8.681" rx="1" ry="1"/>
            </g>
            <g transform="translate(18.915 27.155)">
                <ellipse cx=".698" cy=".694" rx="1" ry="1"/>
                <ellipse cx="1.88" cy="2.292" rx="1" ry="1"/>
            </g>
            <g transform="translate(22.855 24.36)">
                <ellipse cx=".698" cy=".694" rx="1" ry="1"/>
                <ellipse cx="1.88" cy="2.292" rx="1" ry="1"/>
                <ellipse cx="3.456" cy="3.889" rx="1" ry="1"/>
                <ellipse cx="5.032" cy="5.487" rx="1" ry="1"/>
                <ellipse cx="6.214" cy="7.084" rx="1" ry="1"/>
            </g>
        </g>
    </g>
</svg>
