<svg xmlns="http://www.w3.org/2000/svg" width="73" height="17" viewBox="0 0 73 17">
    <g fill="#3D74B4" fill-rule="evenodd">
        <path d="M13.295.162a.504.504 0 0 0-.572-.12.558.558 0 0 0-.324.515v2.97c-2.836.12-4.257 1.365-4.474 1.573-1.431 1.244-2.408 2.979-2.763 4.904a9.148 9.148 0 0 0-.094 2.827v.003l.004.025.112.68c.037.229.205.409.42.452a.515.515 0 0 0 .547-.261l.335-.59c1.027-1.811 2.308-3.012 3.806-3.568a5.235 5.235 0 0 1 2.107-.327v3.076c0 .225.129.428.325.514a.504.504 0 0 0 .573-.122l5.55-5.912a.58.58 0 0 0-.002-.787L13.295.162z"/>
        <path d="M17.579 12.465a.433.433 0 0 0-.421.443v1.875c-.001.734-.566 1.33-1.264 1.33H2.106c-.698 0-1.263-.596-1.264-1.33V4.217c.001-.734.566-1.33 1.264-1.33h2.913a.433.433 0 0 0 .421-.444A.433.433 0 0 0 5.02 2H2.106C.943 2.001.001 2.993 0 4.217v10.566C.001 16.007.943 16.998 2.106 17h13.788c1.163-.002 2.105-.993 2.106-2.217v-1.875a.433.433 0 0 0-.421-.443z"/>
        <text font-family="NunitoSans-SemiBold, Nunito Sans" font-size="16" font-weight="500" transform="translate(0 -2)">
            <tspan x="23" y="16">Ekspor</tspan>
        </text>
    </g>
</svg>
